<svg xmlns="http://www.w3.org/2000/svg" viewBox="0 0 1920 1080"><defs><style>.cls-1{fill:#f9eeea;}.cls-2{fill:#aaa;}.cls-3{fill:#e9b799;}.cls-4{fill:#754c24;}.cls-5{fill:#8c5f39;}.cls-6{fill:#603813;}.cls-7{fill:#f2cab1;}.cls-8{fill:#1a1a1a;}.cls-9{fill:#9aafc2;}.cls-10{fill:#7390a7;}.cls-11{fill:#5b788c;}.cls-12{fill:#fff;}.cls-13{fill:#534741;}.cls-14{fill:#736357;}.cls-15{fill:gray;}.cls-16{fill:#666;}.cls-17{fill:#999;}.cls-18,.cls-24{fill:none;stroke-miterlimit:10;}.cls-18{stroke:#efeeed;stroke-width:5px;}.cls-19{fill:#f7f7f7;}.cls-20{fill:#b3b3b3;}.cls-21{fill:#7a4e2d;}.cls-22{fill:#a56f47;}.cls-23{fill:#e0aa90;}.cls-24{stroke:#e6e6e6;}.cls-25{fill:#ccc;}.cls-26{fill:#eac0a9;}</style></defs><g id="BG"><rect class="cls-1" width="1920" height="1080"/><ellipse class="cls-2" cx="864.5" cy="678" rx="197.5" ry="7"/></g><g id="Layer_2" data-name="Layer 2"><path class="cls-3" d="M184.88,448.36c0-.39-.64-.45-.84-.12a1.25,1.25,0,0,0,.05,1.11c4,11.13,12.78,19.91,22.25,27,10.21,7.64,22.1,13.92,34.85,14.21,11.69.27,22.83-4.49,34.21-7.21,17.14-4.1,35.19-3.48,51.34-10.56A86.43,86.43,0,0,0,323.47,443c-.31-1-.91-1-2-1a23.75,23.75,0,0,0-3.17.72,14.18,14.18,0,0,1-4,.07,178,178,0,0,1-47.91-10.51c-17.85-6.61-35.12-15.16-51.73-24.46-2.47,5.08-5.1,10.37-9.65,13.72-3.85,2.84-8.68,4-12.85,6.33-2.86,1.61-5.59,4.14-5.84,7.41s2,6.69.66,9.66C186.2,446.65,184.93,446.54,184.88,448.36Z"/><polygon class="cls-4" points="321.04 377 431.04 375 462.04 396 341.04 397 321.04 377"/><polygon class="cls-5" points="341.04 397 462.04 396 462.04 518.07 341.04 518.07 341.04 397"/><polygon class="cls-6" points="321.04 377 341.04 397 341.04 518.07 320.04 488 321.04 377"/><path class="cls-7" d="M107.57,209.49A31.2,31.2,0,0,1,104.2,227c-.38.72-.61.62-.38,1.39a15.09,15.09,0,0,1,11.32,4.31,46.88,46.88,0,0,1,3.94,4.94c5.36,7,13,11.94,21,15.41s15.77,5.15,24.31,7.22a172.49,172.49,0,0,1,10.92-29.18c.9-1.88,1.81-3.5,1.89-5.37a6,6,0,0,0-.14-1.66c-.34-1.55.8-3,2-4,3.72-3.06,7.66-3.26,12.26-2.51.91.15,1.84.32,2.76.44a18.05,18.05,0,0,0,3.2.21,12.77,12.77,0,0,0,9.24-4.33,11.49,11.49,0,0,0,2.56-9.8c-.32-1.46-.94-2.83-1.38-4.25-1.32-4.23-3.65-10.25-.13-12.94,1-.74.06-2.34-1-2.87s-2.51-.78-3-1.88l3.63-1.16a1.55,1.55,0,0,0,.85-.49,1.62,1.62,0,0,0,.15-1c-.2-2.44-.39-4.87-.59-7.31a2.8,2.8,0,0,1,.18-1.55,2.66,2.66,0,0,1,1.36-1l4.62-2.13a5.14,5.14,0,0,0,1.9-1.26c1.21-1.5.37-3.73-.62-5.38-4-6.72-9.84-12.61-11.57-20.23a3.63,3.63,0,0,1-.12-1.31,5.52,5.52,0,0,1,.69-1.67,7.91,7.91,0,0,0,.55-5.59c-.81-2.91-3-4.45-5.54-6a43.33,43.33,0,0,0-8.3-3.58c-2.44-.86-3.23-2.69-5.62-3.7a39.92,39.92,0,0,0-7.67-2.24c-12.41-2.43-25.92-.64-36.4,6.44a64.2,64.2,0,0,0-8.67,7.3A158.46,158.46,0,0,0,116,148.76a5.12,5.12,0,0,1-1.68,1.66,1.76,1.76,0,0,1-2.17-.33,2.34,2.34,0,0,1-.35-1.06,5.33,5.33,0,0,1,.31-2.93c-4.53,10.11-6.32,21.19-8.07,32.12-.75,4.7-1.5,9.48-.89,14.21C103.89,198.33,107,203.47,107.57,209.49Z"/><path class="cls-3" d="M152.08,186.64c.88,4.29,3.53,8,6.12,11.5l2.76,3.78a41.6,41.6,0,0,0,3.64,4.52c2.17,2.24,4.85,4,6.88,6.35,3.23,3.79,4.06,8.53,5.71,13.06a1,1,0,0,0,0-.17,6,6,0,0,0-.14-1.66c-.34-1.55.8-3,2-4,3.72-3.06,7.66-3.26,12.26-2.51.91.15,1.84.32,2.76.44-3.87-1.92-8.93-2.65-13.09-3.91a36.85,36.85,0,0,1-13.73-8.23,108.65,108.65,0,0,1-10.82-12C154.71,191.62,152.87,189.35,152.08,186.64Z"/><path class="cls-3" d="M146.2,159.87c.09,1.88,1.59,3.64,1.08,5.45a1.27,1.27,0,0,1-.39.66,1.46,1.46,0,0,1-1.42,0,5.74,5.74,0,0,1-2.36-1.8c-.39-.51-.81-1.16-1.45-1.13a1.61,1.61,0,0,1,2-.76,9.3,9.3,0,0,1,1.39,1,.49.49,0,0,0,.37.08.41.41,0,0,0,.22-.21,1.24,1.24,0,0,0-.17-1.25,9.25,9.25,0,0,0-.89-1c-.88-1-1.3-3.56-.27-4.65a1.46,1.46,0,0,1,2.11-.09C147,157,146.16,158.93,146.2,159.87Z"/><path class="cls-3" d="M140.38,154.86c-.52.22-1.11.26-1.61.53-1,.55-1.34,1.79-1.58,2.91a13.37,13.37,0,0,1,.16-4.51,4.57,4.57,0,0,1,2.82-3.29c1.09-.33,2.44-.17,3.19-1a1,1,0,0,0,.25-.92A1.06,1.06,0,0,0,143,148a2.2,2.2,0,0,0-2.42.74c-.13.18-.27.39-.48.4s-.38-.24-.47-.45a5,5,0,0,1,.27-4.32,1.92,1.92,0,0,1,.79-.83,1.62,1.62,0,0,1,1.57.21,4,4,0,0,1,1.06,1.25c1.07,1.73,1.47,3.4.49,5.22C143,151.71,142.07,154.14,140.38,154.86Z"/><path class="cls-8" d="M106.4,90.13c-3-.9-6.82-2.35-10-2.35-.87,0-7.36,1.37-7.36,2.08a5,5,0,0,1,2.43-1,14.77,14.77,0,0,0-4.36,2.88c0,.23.43,0,.32-.16s-.4-.2-.63-.16a24.49,24.49,0,0,0-4.3,1.12,1.42,1.42,0,0,1,1.76.76,4.07,4.07,0,0,1,.27,2.08l-.22,5.24-2.17-2.36a14.37,14.37,0,0,1,.33,6.19l2.26-.41c-1.32,3.23-2.65,6.56-2.62,10a26.48,26.48,0,0,0,1.9,8.32c1.07,3.09,1.81,6.22,2.88,9.32-1.39,2.94-1.3,6.34-1.17,9.6l.37,9.88.78-1.76a86,86,0,0,1,.22,17,8.11,8.11,0,0,1,1.36-3.31l-1,10.09a2.91,2.91,0,0,1,1.84-.56,78.21,78.21,0,0,0,3.84,16.47l1.74-1.69a25.42,25.42,0,0,0,3,12.4c-.57-.69.6-1.7,1.43-1.35a3.09,3.09,0,0,1,1.42,2.18L104.09,212l10.62.33,1.16-4.55c.28-1.11,1-2.51,2.13-2.2q1.69-6.3,3.69-12.52c.22-.69.55-1.49,1.26-1.66q1-6.25,2.25-12.49a4.5,4.5,0,0,0-.67-3.7l1.36-.51-.3-5.05,1.64.86c-2.31-10.62-2.9-28.51,9.17-33.61,1.35-.57,2.83.07,4.16.51,4.54,1.52,10.58,3.66,13.14,8,2.92,5,4.82,11.08,7.3,16.35l3.72-6.94a1.45,1.45,0,0,1,.53-.66c.57-.32,1.26.23,1.57.81s.49,1.28,1.05,1.63c1.81-2.44.86-5.87-.19-8.71s-2.11-6.21-.44-8.75a9.72,9.72,0,0,1,1.8-1.88l3.11-2.71c1.28-1.11,3.44-2.16,4.41-.77l.88-2.47a2.22,2.22,0,0,1,1.77.33l.1-3.43,4.17,2.24a8.79,8.79,0,0,0,.85-5.31c-.12-.74.95-1.07.62-1.75-6.67-13.81-20.7-22.57-34.94-28.3C135.47,89.32,121.22,85,106.4,90.13Z"/><path class="cls-9" d="M92.2,243.19c.08,3.46-2,6.65-4.43,9.07s-5.43,4.3-8,6.68c-7.38,7-10.17,17.45-12.63,27.32a174.91,174.91,0,0,0-4.33,21c-.48,4-.69,8.06-.9,12.1-.61,12.1-2.82,23.69-2.38,35.8Q61,394,60.87,433c0,5.42-.06,10.84.39,16.24.63,7.47.75,15.07,1.52,22.47,1,9.4-1.15,19.76-1.82,29.2q-1.1,15.4-1.92,30.83c-.27,5.14-2.38,61.42-2,61.42l184.06,0c-5.3-20.45-4.12-41.94-6.23-63-.62-6.13-1.52-12.22-2.38-18.32-2.69-19.11-5.57-39.27-8.33-58.37l-5.38-37.3c-.54-3.77-1.08-7.55-1.31-11.35-.29-4.93,0-9.88-.55-14.79-.89-8.61-2.77-17.15-3.7-25.75-1.1-10.05-2.32-20.17-5.55-29.75a148.84,148.84,0,0,0-8.24-18.65c-2.78-5.58-5.8-10.88-8.22-16.64-1.94-4.62-5.24-8.44-6.94-13.12q-2.79-7.72-5.29-15.53c-.84-2.61-1.87-5.47-4.27-6.78-.62-.34-1.36-.61-1.69-1.24a2.6,2.6,0,0,1-.21-1.24l-.06-4.88a35.81,35.81,0,0,0-10.59.4c-2.23-2.27-4.3-4.74-6.53-7a54.71,54.71,0,0,0-6.67-6.07c-2.05-1.5-4.29-2.7-6.39-4.13-2.45-1.68-4.67-3.66-7-5.47A65.4,65.4,0,0,0,118,224.47c-4.91-1.78-10.19-3-15.37-2.23-1.12.16-2.39.53-2.87,1.56-1.75,3.72-.55,8-2.66,11.48-1,1.6-2.5,2.78-3.62,4.28C92.12,241.33,92.16,241,92.2,243.19Z"/><path class="cls-9" d="M93,88.11c-1.65,2.13-1.29,5.12-1.23,7.81a28.45,28.45,0,0,1-.92,7.91A27.57,27.57,0,0,0,89.51,110c0,1.42.24,2.82.25,4.24a5.48,5.48,0,0,1-1.26,3.94c.07-.25,1.5,0,1.57-.23-1.56.44-3.13.82-4.72,1.15-1.24.26-1.42,1.37-1.88,2.55A15.13,15.13,0,0,0,83.66,133c.19.44,1.47,1.37,1.7.95,1.34-2.5,3.28-2.69,5.69-2.91,2.67-.24,5.34-.87,8-1.12a92.49,92.49,0,0,0,12.57-1.84,132.7,132.7,0,0,1,13.26-2.45c4.74-.55,9.53-.65,14.28-1.21,10-1.19,22.48-8.61,30.88-3,9.35,6.27,19.42,10.09,29.93,14.13,9.31,3.57,19,7.17,28.91,6.83s20.38-5.27,23.79-14.64a382.07,382.07,0,0,0-39.11-12.16c-1.92-.49-4.11-1.18-4.86-3a9.54,9.54,0,0,1-3.16-7.52,57.93,57.93,0,0,0-7.32-30.79c-4.58-8.27-17.5-12.09-26.16-14-9-2-18.2-2.34-27.38-2.34.55-.9.88-1.78,0-2.34a5.35,5.35,0,0,0-3-.6,2.73,2.73,0,0,0-2,.59c-.7.74-.42,1.94-.09,2.91a54.63,54.63,0,0,0-14,2.62c-4.25,1.41-7.59,3.9-11.78,5.45-3.53,1.31-7.37,2-10.4,4.25a20.55,20.55,0,0,0-5,5.76C96.16,80.19,95.67,84.72,93,88.11Z"/><path class="cls-10" d="M125.4,126c-1-4.47-.13-9.1-.17-13.66,0-2.72-.34-5.42-.51-8.12-.73-11.32,1.09-22.63,3-33.81A13.16,13.16,0,0,1,129.06,66c1.4-2.43,4.52-3.5,5.91-5.94l-5.63,7.41A8.81,8.81,0,0,1,132.66,71c8.54,13.25,14.66,27.93,19.58,42.9a23.71,23.71,0,0,1,1.57,7.72A79.73,79.73,0,0,1,125.4,126Z"/><path class="cls-10" d="M170.78,121.49c4.76-1.54,9.94-.91,14.89-1.66a58.71,58.71,0,0,0,7.61-1.88q7.25-2.13,14.58-4c.07-.71-.29-1,.15-1.59,0-.41-.63-.2-1,0-4,3.1-9.55,3.14-14.51,4.34-2.63.64-5.17,1.63-7.82,2.19a39.56,39.56,0,0,1-7.37.69c-2.28,0-4.79.06-6.5,1.55C170.63,121.42,170.53,121.38,170.78,121.49Z"/><path class="cls-10" d="M178.32,119.72l-1.9-15.25a89,89,0,0,0-1.6-9.89,91.66,91.66,0,0,0-3.24-10.08l-3.74-10.21c-1.26-3.45-2.13-6.35-4.45-9.2a28,28,0,0,0-6.9-6.07c1.17.09,2.42.15,3.6.16s3.95,4.13,4.66,5A27.72,27.72,0,0,1,168.63,70,113.12,113.12,0,0,1,178,101.1a148.1,148.1,0,0,1,2.3,19.44q-.94-.23-1.92-.39C178.42,119.86,178.36,120,178.32,119.72Z"/><path class="cls-10" d="M115.16,245.05a11.21,11.21,0,0,1,3.39,2.4,60.24,60.24,0,0,0,8.59,5.86,96.59,96.59,0,0,0,10.13,5.54,95.38,95.38,0,0,0,15.62,4.92c2.22.56,4.45,1.12,6.69,1.58,4.37.89,9.35,1.25,12.88-1.48a10,10,0,0,1-.28-7.15c-8.75-1.08-17.71,2.74-26.38,1.08-3.85-.74-7.42-2.53-11-4.24q-6.9-3.36-13.91-6.46C118.74,246.12,117.56,245.3,115.16,245.05Z"/><path class="cls-10" d="M162.28,304.14c6.15,9.65,7.21,21.55,10,32.64-1.32-4.55-3-9-4.69-13.42L165.94,319q-1.11-2.91-2.23-5.82a43.83,43.83,0,0,0-3.63-7.83,15.27,15.27,0,0,0-6.22-5.84,20.91,20.91,0,0,1,9.95,7.08"/><path class="cls-10" d="M118,246.84a105.06,105.06,0,0,0-17.8-3.72c-2.79-.33-5.75-.53-8.24.75,3.62-2.23,7.87-2.13,12.08-1.61a72.54,72.54,0,0,1,12.33,3.19C117.48,245.8,117,246.3,118,246.84Z"/><path class="cls-10" d="M159.13,459.9c-6.81,7.57-10.39,17.74-10.84,27.91s2.06,20.34,6.27,29.61a54.79,54.79,0,0,1,7.65-23.87c6.65,11.21,8.19,24.91,6.45,37.83-.77,5.76-2.07,11.42-3.37,17.08-3.33,14.53-6.71,29.19-13.12,42.65,4.07,1.67,8.21-.64,11.36-3.72,15.59-15.27,23.3-36.93,27.14-58.42,2.48-13.85,3.51-28.36-.71-41.78-3.55-11.28-13.3-19.33-23.72-24.91C163.52,460.82,161.19,457.61,159.13,459.9Z"/><path class="cls-10" d="M59.63,342.44a99.8,99.8,0,0,1,4.68-16.53c.25-.65.67-1.41,1.36-1.38q.66,3,1.39,5.89c1.22,4.9,2.91,9.67,4.16,14.56,1,3.93.89,8.33,1.51,12.41q2.33,15.28,5.18,30.48,5.64,30.08,13.3,59.73c1.67,6.46,4.11,11.79,6.1,18.17,1.65,5.27,3.29,10.56,4.59,15.94,2.07,8.61,3.23,17.42,5,26.09,4,19.45,11.26,38.08,18.45,56.59-9.35-15.63-15.92-32.72-23.67-49.21-4.87-10.37-10.22-20.52-14.73-31-5-11.58-7.74-23.78-12.09-35.44-4.53-12.11-6.08-25.05-7.4-37.83-1.07-10.39-2-20.8-2.94-31.22-.82-9.13-1.64-18.27-2.36-27.42-.43-5.36-.81-10.82.4-16.07"/><path class="cls-10" d="M190.84,407.81a89.2,89.2,0,0,0,10.28-57.2c1.17,2,3,3,3.36,5.27,3.77,23.22.67,46.23-5.21,69-3.15-.56-2.19-1.8-3.7-4.64l-5.41-10.21a5.34,5.34,0,0,1-.9-3.12C189.29,406.66,190.83,407.55,190.84,407.81Z"/><path class="cls-10" d="M117.93,437.74c.42-4.58,5.21-7.17,8.64-10.22,7.58-6.73,9.47-17.61,11.25-27.59q2.58-14.35,6.09-28.53c1,8.16,3.9,15.78,5.41,23.84q2.44,13.14,4.46,26.35c.15,1,.38.93-.45,1.59a9.59,9.59,0,0,1-3.15,1.43l-22.69,7.17C123.57,433,119,433.77,117.93,437.74Z"/><path class="cls-11" d="M107.88,455.21a2.36,2.36,0,0,1-2.31-1.79,79.11,79.11,0,0,0-1.41-11,86.87,86.87,0,0,0-4-12c-9.95-25.67-18.15-52.33-19.94-79.8-.42-6.41-.49-12.84-.42-19.27a30.9,30.9,0,0,1,1.69-9.27c-2.64,13.52,3.13,27.11,8.77,39.68L94.39,371c2.84,6.33,5.38,13.23,9.08,19.12,1.38,2.2,2.61,3.53,3.28,6.12.93,3.65,1.54,7.42,2.29,11.1q3.15,15.3,6.18,30.61c.65,3.31,3.29,9.67,1.78,12.89C115.68,453.7,110.65,455.11,107.88,455.21Z"/><path class="cls-11" d="M123.68,452a2.24,2.24,0,0,1-1.47-2.33,3.48,3.48,0,0,1,1.52-2.47,8.85,8.85,0,0,1,2.71-1.22,34,34,0,0,1,8.65-1.82c-.15-.13.23-.15.32,0l3.26,6A60,60,0,0,1,123.68,452Z"/><path class="cls-11" d="M88.06,356.07c.56-7.36,1.12-14.76,2.82-21.95s4.58-14.21,9.33-19.86a56.68,56.68,0,0,1,8.19-7.67,143.88,143.88,0,0,1,21.44-14.22c-.18-.52-.79-.26-1.29,0-7.85,4-15.78,8-22.53,13.66a58.54,58.54,0,0,0-9.77,10.49,35.89,35.89,0,0,0-4.13,7.12,51.84,51.84,0,0,0-2.6,9.11C87.71,340.94,86.22,347.88,88.06,356.07Z"/><ellipse class="cls-12" cx="176.94" cy="271.45" rx="1" ry="3.56" transform="translate(-48.97 39.16) rotate(-11.1)"/><ellipse class="cls-12" cx="191.94" cy="308.45" rx="1" ry="3.56" transform="translate(-55.81 42.74) rotate(-11.1)"/><path class="cls-10" d="M127.11,293.65a29.74,29.74,0,0,1,11.38.94A22.79,22.79,0,0,1,143,296.4a38,38,0,0,1,4.3,2.83,45,45,0,0,1,8,6.84c4.17,4.87,6.19,11.45,11,15.71a32.84,32.84,0,0,0,2.81,2.17c-3-2-4-6.13-6.06-9a49.56,49.56,0,0,1-3.61-4.85c-.9-1.59-1.4-3.41-2.54-4.84a13.71,13.71,0,0,0-2.36-2.14L150,299.56a32,32,0,0,0-4.71-3.23,30.6,30.6,0,0,0-5.81-2.12C135.34,293,131.14,292.16,127.11,293.65Z"/><path class="cls-10" d="M117.06,246.36q.76,5.46,1.76,10.89c2.3,12.44,7,23.84,9.78,36.18a1.66,1.66,0,0,0,1.62.27.63.63,0,0,0,.32-.2.67.67,0,0,0,0-.52c-2.38-7.41-4.28-15-6-22.55s-3.27-15-4.65-22.6C118.52,247.44,118.41,246.75,117.06,246.36Z"/><path class="cls-10" d="M144.65,591.53a1.55,1.55,0,0,0,1.52-.19c-.8-22-5.08-43.3-6.61-65.3-.93-13.43-1.67-27-3.27-40.42q-1.84-15.51-2.65-31.12a10,10,0,0,1,0-3.13,6.89,6.89,0,0,1-1.85.26.16.16,0,0,1,.17.06,92,92,0,0,0,1,15.56,186.21,186.21,0,0,1,2.47,19.25c.3,5.34,1.16,10.53,1.52,15.86.5,7.33,1.25,14.61,1.31,22,.07,8.92,1.51,17.7,2.9,26.52,2.11,13.32,3,26.62,3.89,40.07C145,591.24,144.83,591.27,144.65,591.53Z"/><path class="cls-10" d="M69.45,590.08l-3.28-31.86c.43,7.16,1,14-.68,20.95-.93,4-2.54,8-1.74,12.06a58.81,58.81,0,0,0,3.39-12.7A66.37,66.37,0,0,0,69.45,590.08Z"/><path class="cls-10" d="M188.39,368.55a97.13,97.13,0,0,0-13.08-72.41c-.41-.64-.31-.14-.85-.68,9.52,8.82,14.79,21.53,16.59,34.38s.42,25.94-1.7,38.75c-.06.37-.52.69-.81.45S188.24,368.2,188.39,368.55Z"/><path class="cls-10" d="M197.21,431.23c.22.8,1.57.6,1.9-.16a3.18,3.18,0,0,0-.33-2.41c-3.69-8.81-5.23-18.34-7.54-27.6-5.82-23.3-16.7-45.37-19.65-69.21-.41-.28-.53-.46-.94-.75a171.63,171.63,0,0,0,4.26,21.33c1.81,6.54,4.18,12.9,6.56,19.26,2.79,7.47,5,15.52,7.41,23.12a45,45,0,0,1,2.09,8.27c.23,1.85.23,3.71.46,5.56a39.69,39.69,0,0,0,2.26,8.47c.67,1.88,1.37,3.76,2.1,5.62C196.9,425.56,196.43,428.29,197.21,431.23Z"/><path class="cls-7" d="M135,444.49c4.07,7.72,2.13,4.44,6.2,12.16a262.87,262.87,0,0,0,13.47,23.53c1.64,2.47,3.37,4.88,5.1,7.29l5,7a46.4,46.4,0,0,0,5.15,6.35c3.82,3.7,7.36,6.71,12.95,5.92,2.69-.38,5.3-1.25,8-1.59,7-.88,13.83,1.81,20.68,3.36A101.69,101.69,0,0,0,224,510.36q6.92.69,13.88,1c9,.39,18.24.22,27.32,0,3.26-.06,6.55-.37,9.81-.36,2.33,0,4.29.44,6.65.11,12.61-1.78,25.24-3.35,37.91-4.63,6.17-.63,12.35-1.19,18.55-1.27s10.55,1,15.63,4.53c4.55,3.16,10.12,4.37,15.06,6.86,2.46,1.25,4.7,2.92,7.21,4.06,1.84.84,3.82,1.39,5.64,2.27,2.63,1.26,4.88,3.18,7.39,4.64a23.84,23.84,0,0,0,7.88,2.86,10,10,0,0,0,5.45-.28,4.71,4.71,0,0,0,3.11-4.17,82.61,82.61,0,0,0,7.75,3.62,3.66,3.66,0,0,0,3.29-.26,22.71,22.71,0,0,0,3.31-2.21,13.33,13.33,0,0,1,5.88-2.47c5.3,2,9.7,2.45,15.24,3.57a9,9,0,0,0,3.42.21,3.15,3.15,0,0,0,2.52-2.09,4.07,4.07,0,0,0-1.19-3.43c-2.72-3.27-6.8-5-10.72-6.69a78.4,78.4,0,0,1-12.85-6.77,5.45,5.45,0,0,1-2-1.85,2,2,0,0,1,.38-2.49,2.62,2.62,0,0,1,1.35-.36,11.74,11.74,0,0,1,4,.45c9.85,2.89,19.46,2.86,29.29,5.82a8.11,8.11,0,0,0,3.69.55,2.67,2.67,0,0,0,2.35-2.5,3.26,3.26,0,0,0-.69-1.61,10.4,10.4,0,0,0-6.18-4.11c-2.79-.61-4.36-2.36-7-3.53-7-3.11-14.53-4.61-21.69-7.24-6.74-2.47-13.07-5.93-19.38-9.37-3-1.66-6.46-4-6.4-7.44,0-2.23,3.86-3.07,6.08-3.37s4.5-.05,6.66-.63,4.19-2,6.45-2.52c2.42-.51,5,.12,7.34-.75s3.82-3,5.19-5c.71-1.05,1.4-2.56.51-3.47a2.7,2.7,0,0,0-1.2-.62,30.69,30.69,0,0,0-4.86-1.05,78.78,78.78,0,0,0-18.16,0c-5.64.54-11.35-.1-17,.44a83.43,83.43,0,0,0-8.44,1.4l-19.67,4a39.73,39.73,0,0,0-7.67,2.09,23.76,23.76,0,0,1-4.7,1.81,44.86,44.86,0,0,1-4.93.18,11,11,0,0,0-5,1.64c-2,1.26-4.45.42-6.8.18-8.58-.9-17.24.09-25.88,0-15.08-.1-30.08-2.39-44.77-5.76-7.39-1.7-14.72-3.69-22-5.84-6.68-2-13.86-5.39-20.74-6.21-5.19-.62-11.21-1.44-15-5.43-2.05-2.16-2.7-5.59-3.84-8.32a39.51,39.51,0,0,0-2.47-5.56c-1-1.56-2.76-1.66-4.6-1.45-6.53.74-13.1,1.06-19.53,2.41-5,1-9.9,2.34-14.95,2.87-8,.83-15.47,4.24-23.12,6.58-.49.15-1.2.2-1.51.6a1.42,1.42,0,0,0-.17,1.43"/><path class="cls-3" d="M399.22,521a17.15,17.15,0,0,0,2.71,3.94,7.6,7.6,0,0,1,2,2.92c1.19-1.73.1-2.29-1.22-3.21A11.46,11.46,0,0,1,399.22,521Z"/><path class="cls-3" d="M411.92,516.22a71.24,71.24,0,0,0,9.87,8.48,1.81,1.81,0,0,0,.56-1c.09-.36-.2-.46-.5-.67C418.36,520.67,415.41,518.61,411.92,516.22Z"/><path class="cls-3" d="M362.89,493.37a30,30,0,0,0,5.62-22.81c-.33.35-.19.14-.22.63a81.91,81.91,0,0,1-2.47,15.55C365.1,489.49,364.78,491.24,362.89,493.37Z"/><path class="cls-3" d="M396.3,464.89a15.26,15.26,0,0,1-.12-4.16c-.15-.12-.33-.22-.48-.33A11.39,11.39,0,0,0,396.3,464.89Z"/><path class="cls-3" d="M161.08,482.68A29.93,29.93,0,0,0,172,499.19c2.37,1.78,5.25,3.24,8.17,2.79-5.63-2.35-10.37-7.55-14.46-12.08C163.65,487.6,161,485.78,161.08,482.68Z"/><path class="cls-3" d="M208.26,473.66a23.63,23.63,0,0,0,3.68-10.44,70.47,70.47,0,0,0,.24-11.16c-.78-.19-1.48-.54-2.26-.73,1.86,5.46,1.3,11.41.72,17.15C210.44,470.53,209.93,472.44,208.26,473.66Z"/><path class="cls-3" d="M148.16,440.58a37.34,37.34,0,0,1-4.69,1c-2.46.35-5.64,0-7.29,2.39-2.07,2.95,2.42,8.22,4,11.05L147,467.51a113.2,113.2,0,0,0-8-18.22,3.67,3.67,0,0,1-.65-2c.12-1.35,1.62-2.07,2.9-2.52,10.33-3.61,20.84-6.73,31.46-9.34-5.74,1.41-11.76,1.69-17.54,3.15C152.81,439.15,150.5,439.93,148.16,440.58Z"/><path class="cls-12" d="M419.6,458.4c-2.18.94-1.78,5.62-1.65,7.76,0,.59.65.76,1.25.72a18.56,18.56,0,0,0,5.55-1,6.22,6.22,0,0,0,3.84-3.9,5.93,5.93,0,0,0,0-2.93c-.09-.33-8.26-.94-8.94-.68Z"/><path class="cls-12" d="M452.32,508.24a2.8,2.8,0,0,0,1.08.8,9,9,0,0,0,2.37.65c.89.16,1.86.65,2.52-.09a1.73,1.73,0,0,0,0-2.21c-.34-.44-.78-.76-1.1-1.23-.9-1.35-2.48-1.69-3.9-2.13a.33.33,0,0,0-.29,0,.43.43,0,0,0-.13.28C452.49,506,451.59,507.24,452.32,508.24Z"/></g><g id="Layer_3" data-name="Layer 3"><path class="cls-13" d="M1034.39,637.48c.35-.09.66.23.85.53,1.64,2.6.89,6.11,2.47,8.74.53.88,1.32,1.69,1.35,2.7,0,1.2-1,2.14-1.88,3-3.18,3-5.62,6.66-9.14,9.24-4.7,3.44-10.77,4.51-16.6,5.33s-9.1,1.51-15,1.12a19.3,19.3,0,0,1-5.51-1c-1.34-.5-5.15-1.23-6.38-2a9.2,9.2,0,0,1-3.78-3.32,5.94,5.94,0,0,1,.92-6.11,18.34,18.34,0,0,1,5.11-4.16c7.86-5,17.36-6.06,25.91-9.85a68.08,68.08,0,0,1,10.57-4.08C1027,636.68,1030.81,636.26,1034.39,637.48Z"/><path class="cls-13" d="M995.83,634.69c.32.36.14.92-.06,1.36l-1.85,4.07a26.34,26.34,0,0,1-4,6.81,17.51,17.51,0,0,1-8.15,4.82,52.86,52.86,0,0,1-9.44,1.57l-13.9,1.46c-6.88.72-13.84,1.43-20.68.41a10.43,10.43,0,0,1-5.45-2.09,10.55,10.55,0,0,1-2.56-4.33c-1-2.74-1.69-6,.06-8.4s5-2.63,7.85-2.76c5.2,2.88,10.78,3.86,16.72,3.86s11.84-.92,17.75-1.59a36.69,36.69,0,0,0,9.49-1.85c2.21-.88,4.21-2.21,6.38-3.2a10.33,10.33,0,0,1,6.92-1C995.78,634.08,995.86,633.8,995.83,634.69Z"/><path class="cls-14" d="M976.65,621.65a16.84,16.84,0,0,1-3.07,3.79,16.58,16.58,0,0,1-3.9,2.19c-5.39,2.43-10.82,4.85-16.57,6.21-4.64,1.1-9.43,1.49-14.05,2.67a12.23,12.23,0,0,0-4.26,1.77,5.17,5.17,0,0,0-2.27,3.86,5.67,5.67,0,0,0,1.19,3.35c2.81,3.92,8,5.17,12.83,5.63,8.59.81,17.24,0,25.83-.82,4.3-.41,8.75-.87,12.46-3.08a29.66,29.66,0,0,0,5.37-4.52l4-4c3.13-3.09,6.45-6.56,6.87-10.94a5.72,5.72,0,0,0-1.06-4.21,8.12,8.12,0,0,0-2.39-1.74L992,618.72c-2.91-1.61-5.91-3.32-9.18-4.07-1.88-.44-2.11.86-3.09,2.34Z"/><path class="cls-14" d="M1034.26,632.13c-.15,3.4.71,6.74,1.15,10.11s.43,7-1.29,9.91c-1.88,3.22-5.43,5-8.78,6.62-1.59.77-3.2,1.49-4.76,2.3a10.22,10.22,0,0,1-4.5.91c-3.68.23-7.37.41-11.06.3a139.21,139.21,0,0,1-14-1.27,15.18,15.18,0,0,1-5.07-1.26,3.72,3.72,0,0,1-2.18-2.62,4.57,4.57,0,0,1,1-3c3-4.55,7.09-8.3,10.57-12.52s6.47-9.2,6.66-14.66a61.32,61.32,0,0,1,8.44.79c4.51.63,8.84,2.2,13.3,3.14A44,44,0,0,0,1034.26,632.13Z"/><path class="cls-15" d="M1002.64,501.81a192.78,192.78,0,0,1,6,35.75c.84,9.82,1.26,19.66,1.91,29.49.91,13.86,2.28,27.88-.23,41.54a14.22,14.22,0,0,1-1.79,5.26c-2.54,3.85-7.78,4.65-12.38,4.85a140.86,140.86,0,0,1-17.19-.27,3.1,3.1,0,0,1-2-.64c-1-1-.28-2.8.87-3.63s2.62-1.22,3.62-2.23a3.41,3.41,0,0,0,.84-3.54,2.79,2.79,0,0,0-3.07-1.74c-.32-1.22,1.44-2.11,1.44-3.37s-1.83-1.76-3-2.39c-2.45-1.26-3-4.64-2.23-7.3s2.43-5,3.35-7.55c1.23-3.53,1-7.41.35-11.1a107.84,107.84,0,0,0-2.59-10.57c-3.85-13.68-7.2-27.35-11.05-41,.82-3.15-.75-6.42-2.7-9s-4.35-4.94-5.59-8a11.92,11.92,0,0,1-.22-8.44c.81-2.28,2.32-4.31,2.82-6.68.71-3.36-.7-6.76-1.89-10a85.71,85.71,0,0,1-4.7-19.19c-.71-5.61-1.65-11.16-2.87-16.68-5.15-23.35-10.3-47.73-4.39-70.89,2.67-10.46,7.25-20.2,12.09-29.86l20.55-5.54c3.38-.91,7.36-1.7,10.06.53a10,10,0,0,1,2.41,3.47c6,12.4,6.12,26.68,6.18,40.43.51.2-.14.74-.18,1.29l-4.41,61.73c-1.12,15.6-2.2,31.56,2,46.62,1,3.69,2.36,7.28,3.74,10.85.44,1.15,1.3,2.54,2.5,2.27C1002.49,505.93,1001.9,503.37,1002.64,501.81Z"/><path class="cls-16" d="M949.05,395.54A60.74,60.74,0,0,0,976.76,429c1.88,1.05,2.38,3.39,2.76,5.5s.49,4.33,1.43,6.27c-.3-9.66-.6-19.38.67-29,.3-2.23.68-4.44.89-6.68.61-6.61-.26-13.33.8-19.89.38-2.39,1-4.75,1.25-7.17a11.62,11.62,0,0,0-1.24-7,1.87,1.87,0,0,0-.75-.8,2.25,2.25,0,0,0-1.59.08,25.84,25.84,0,0,1-6.05,1c-4.66.2-9.53-.84-13.84.93a16.72,16.72,0,0,0-6,4.63,19.09,19.09,0,0,0-3.53,5.49c-1.14,2.89-1.26,6.06-1.36,9.16C950.11,393.4,948.43,393.7,949.05,395.54Z"/><path class="cls-16" d="M994.81,556c.82,8.46-3.33,16.77-9.06,23.07-1.67,1.83-3.52,3.62-4.37,5.94a13.36,13.36,0,0,0-.43,6.07,40.25,40.25,0,0,0,1.81,8.39,1.75,1.75,0,0,0,.59,1c.68.45,1.55-.16,2.37-.17a2.49,2.49,0,0,1,2.07,1.69,18.13,18.13,0,0,0,1.08,2.61,3.59,3.59,0,0,0,4.44,1.22A6.1,6.1,0,0,1,995,605c1.14-.16,2.08.87,2.66,1.86a15.05,15.05,0,0,1,1.85,10.21c1.61-7.07,3.22-14.51,1.19-21.46-2.51-8.55.51-18.26.17-27.16-.21-5.35-.65-10.77-2.53-15.78-.62-1.65-1.39-3.24-2.06-4.86a93.09,93.09,0,0,1-4-13.08,42.07,42.07,0,0,0,2,16.41C994.94,553.27,994.6,553.81,994.81,556Z"/><path class="cls-17" d="M1053.13,335c1,16.27,2,32.86-2,48.64-1.78,6.9-4.5,13.51-7.11,20.14-6.85,17.38-13.07,35.3-14.36,53.93a95.84,95.84,0,0,0,2.43,29.72c.42,1.74.82,3.8-.36,5.13-.77.85-2.1,1.27-2.43,2.37s.48,2.07,1.16,2.93a25.82,25.82,0,0,1,5.6,17c-.92,23.4,0,47.05,5.11,69.9a2.47,2.47,0,0,0,.58,1.28,8.14,8.14,0,0,0,1.28.66c1.45.91.82,3.13,0,4.62s-1.65,3.59-.34,4.68c.86.72,2.28.58,3,1.46,1.08,1.41-.93,3.25-.93,5,0,.68.32,1.34.27,2-.1,1.43-1.63,2.23-2.76,3.12a7.72,7.72,0,0,0-2.89,6,19.9,19.9,0,0,0,.37,4.94,5.87,5.87,0,0,1,.27,1.76c-.06,1.3-.93,2.4-1.62,3.51a14.27,14.27,0,0,0-2,5.47,8.54,8.54,0,0,1-.59,2.8,2.11,2.11,0,0,1-2.33,1.25c-3,2.67-6.55,1.27-10.43.35l-18.68-4.41c-1.86-.44-3.94-1-4.84-2.72-1.73-3.27-.58-7.55,1.29-10.74a13.07,13.07,0,0,0,2-4c.28-1.48-.47-3.31-2-3.55a3.39,3.39,0,0,1-.72-.13c-1.25-.48-.37-2.31-.28-3.64.12-1.71-1.44-3-2.61-4.24s-2-3.46-.6-4.5c1-.74,2.77-.63,3-1.83a4.89,4.89,0,0,0-.17-1.25c-.13-1.49,1.57-2.42,2.27-3.74.84-1.61.09-3.55-.52-5.26s-.95-3.9.4-5.12c.11-4.49-1.61-9.42-1.43-13.9.07-1.65.36-3.28.32-4.93a23.82,23.82,0,0,0-.72-4.75q-1.17-5.18-2.52-10.32c-3.35-12.72-8.35-24-11.71-36.69-2.54-9.65-2.8-19.69-3.93-29.56-.57-5-2.14-9.77-2.76-14.67-.81-6.48,0-13.9.29-20.44.36-7.39,1.23-14.74,2.14-22.08.88-7.14,1.8-14.28,2.34-21.45.49-6.45-.38-13.38.93-19.68s.64-13,.52-19.46q-.22-11.44-.72-22.88c6.2-2.32,12.5-4.76,19.12-5.07,6.33-.29,12.62.92,18.92,1.63C1032.74,335.48,1042.65,335.23,1053.13,335Z"/><path class="cls-16" d="M1038.31,386.39a45.82,45.82,0,0,1,.25,6.09,72.19,72.19,0,0,1-3.27,18.76c-.91,3.09-1.94,6.15-3,9.19-.87,2.46-1.2,5-2.11,7.41-4.44,11.72-8.83,23.34-10.84,35.78-1.8,11.09-.83,22.43.47,33.59a560.51,560.51,0,0,0,9.63,57c1.08,4.84,2.22,9.67,2.88,14.58a148.89,148.89,0,0,1,.89,18.89c0,4.1,0,6.74-1.67,10.48.11-.1-.46,1.09-.35,1,.28-4-.24-8.23.07-12.25,1.85-23.76-6.08-46.7-10.23-69.79-4-22.44-5.74-47.66.34-69.88,3.53-12.89,9.71-25,13-37.91,4.61-18,3.49-36.94,2.33-55.5-.08-1.24-.7-1.7-.7-2.94a2.59,2.59,0,0,1,1,2.26l.68,8.25c.86,10.35,1.72,20.83,0,31.06"/><path class="cls-16" d="M1019.36,533.51c-6.47-1.89-11.71-6.6-16.26-11.57A114.2,114.2,0,0,1,988,501.1c-.33-.6-.51-1.59.15-1.75,1.56,1.18,2.59,3.31,3.32,5.12,4,10,12.26,17.73,21.24,23.65a30.77,30.77,0,0,1,4.09,3A17.84,17.84,0,0,1,1019.36,533.51Z"/><path class="cls-16" d="M1035.08,603.19a15.82,15.82,0,0,0,6.75-2.42,2,2,0,0,0,.92-1c.12-.45-.23-1-.69-1a1.06,1.06,0,0,0-.45.25c-2.86,2.2-6.29,3.51-9.66,4.78a11.5,11.5,0,0,1-5.46,1.09A35.52,35.52,0,0,1,1035.08,603.19Z"/><path class="cls-16" d="M1029.76,613.52a15.75,15.75,0,0,0,7-1.47,1.93,1.93,0,0,0,1-.88c.19-.43-.08-1-.55-1a1.22,1.22,0,0,0-.48.18c-3.13,1.79-6.71,2.62-10.22,3.43a11.53,11.53,0,0,1-5.55.33A36.07,36.07,0,0,1,1029.76,613.52Z"/><path class="cls-16" d="M1016.29,397.72c-8.65.85-17.91,1.58-25.53-2.61A29.61,29.61,0,0,1,985.2,391c.53,2.64,2.69,4.25,5.1,5.42C998.78,400.52,1007.37,400.69,1016.29,397.72Z"/><path class="cls-7" d="M933.81,231.08c-.42,3.52-1,7.55,1.26,10.24,1.86,2.16,5,2.63,7.8,3a5.56,5.56,0,0,0,2.6-.11c1.28-.48,2-1.8,2.61-3,2-4.24,3.48-8.84,3.32-13.52s-2.16-9.47-6-12.16a5.26,5.26,0,0,0-2.39-1,6.36,6.36,0,0,0-3.83,1.29c-1.95,1.2-4.47,2.27-5.11,4.6C933.22,223.43,934.21,227.77,933.81,231.08Z"/><path class="cls-9" d="M1007.35,99.5c1.81.18,4.93-.11,6.55.68,1.2.59,2.08,2.37,2.68,3.53a21.81,21.81,0,0,1,2.11,10.37,1.61,1.61,0,0,0,.25,1.13,1.66,1.66,0,0,0,1.18.35,18.16,18.16,0,0,1,6.26,1.36,35.71,35.71,0,0,1,8.25,5.33l22.12,17.3c4,3.12,8.78,8,9.83,13.1.38,1.86.36,3.77.62,5.65.59,4.27,2.59,8.25,3.23,12.51a10.81,10.81,0,0,1,0,3.93,13.7,13.7,0,0,1-1.91,4.17c-1.21,2-1.63,4-3,5.86q-.24,9.73-.31,19.47c0,3.22.17,6.5,0,9.72-.13,2.4-1.07,3.3-3.54,2.53a1.32,1.32,0,0,0-1.1,0c-.44.28-.44.9-.44,1.41a16.7,16.7,0,0,1-1.42,5.73c-1.21,3.19-2.93,5.2-3.1,8.6-.57,11.52-1.13,23.12.56,34.52a21.25,21.25,0,0,1-.27,9c-.76,3.17-.28,7-.35,10.3-.08,4.25-.16,8.51.1,12.75.25,4,.8,8.07,1,12.12a146.34,146.34,0,0,1-.29,15.67c-.23,4.18-.71,8.43-.69,12.61,0,3,1,5.65-1,8.38a1.58,1.58,0,0,1-.56.53,1.87,1.87,0,0,1-1.05.08c-2-.21-3.45.22-5.39-.27-10.14-2.56-21-.12-31.19-2.54-2.31-.55-4.56-1.34-6.9-1.73a39.26,39.26,0,0,0-8.67-.15c-8.22.48-16.48,1.1-24.46,3.12-3.45.87-6.86,2-10.41,2.32s-7.34-.27-10.1-2.52a2.65,2.65,0,0,1-.77-.9,2.89,2.89,0,0,1-.16-1.24c.11-6.92,1.57-13.57.52-20.41-2-13.17.21-26.77-2.38-39.84-1.58-7.95-4.9-15.46-6.61-23.38-.74-3.4-1.18-6.87-2.14-10.21s-2.23-6.66-4.81-9q-.25-7-.75-14c-.09-1.26.28-5.7-.55-6.6-.4-.43-5,0-5.08-.55a186.85,186.85,0,0,1-1-18.76c0-2.65.18-5.3.21-7.95.16-12.5-2-25.07.57-37.29.6-2.83,2.38-5.24,4.25-7.44a68.61,68.61,0,0,1,12.92-11.74c1.62-1.13,3.84-2.4,4.56-4.33s.74-4,1.39-5.92a31.69,31.69,0,0,1,6.6-11.13c1.22-1.33,2.61-2.65,3-4.4C979.22,105.29,992.62,100.7,1007.35,99.5Z"/><path class="cls-11" d="M1012.47,66.4a4,4,0,0,0-3.08,1.18,5.24,5.24,0,0,1-3,1.49,27.17,27.17,0,0,1-1.13-6.12,2.58,2.58,0,0,1,.06-1,2.85,2.85,0,0,1,1.79-1.48l2.12-.92a2.22,2.22,0,0,1,1.2-.26C1012.2,59.6,1012.33,65.08,1012.47,66.4Z"/><path class="cls-10" d="M1007.14,61.56a5.41,5.41,0,0,0,4.57-.6.41.41,0,0,1-.5.29c0-3.89.45-7.78.09-11.65s-1-7.42-4-9.94c-1.19-4-2.54-8.25-5.75-10.93a21.25,21.25,0,0,0-5.48-3l-7.12-3c-2.26-.95-4.65-1.93-7.09-1.68a14.65,14.65,0,0,0-5.09,1.88c-6.95,3.61-16.75,4.51-21.21,10.94-2.28,3.29-2.9,7.43-3.12,11.42a68.68,68.68,0,0,0,.11,9c.18,2.33.44,4.86-.76,6.87-.43.71,0,1.33.86,1.46a3.7,3.7,0,0,0,2.31-.76A59.61,59.61,0,0,1,992.43,54C998,54.69,1004.33,56.65,1007.14,61.56Z"/><path class="cls-11" d="M999.18,144.82c-2.66-2.8-6.83-3.46-10.16-5.4a8.94,8.94,0,0,0-2.09-1.06c-2.26-.63-4.55,1.19-5.58,3.3s-1.26,4.52-2.1,6.71c.68-.91,1.13-1.68,1.81-2.59,1-1.38,2.19-2.85,3.86-3.21a7.28,7.28,0,0,1,2.42,0l7.4,1C996.45,143.79,998.14,143.44,999.18,144.82Z"/><path class="cls-11" d="M959.57,140.15a3.24,3.24,0,0,1,2.51-.88A4,4,0,0,1,964.3,141a5,5,0,0,1,1.37,2.81c0,.27,0,.63.3.67a.54.54,0,0,0,.37-.14,15.84,15.84,0,0,1,5.17-2.35c-.58-1.07-1.92-1.41-3.06-1.85-1.53-.58-2.89-1.53-4.39-2.19a6.14,6.14,0,0,0-4.76-.37,3.22,3.22,0,0,0-2,2.7C957.46,142.18,958.78,140.81,959.57,140.15Z"/><path class="cls-11" d="M966.26,117.62c1.72,6.76,5.79,15.48,7.08,21.91-2.58,3.86-9-6.76-10.21-11.26-1-3.67,0-7.55,1.08-11.21.15-.53.47-2.26,1.32-2.07C966,115.1,966.14,117.13,966.26,117.62Z"/><path class="cls-11" d="M1012.57,100.91a1,1,0,0,1-.17.53c-1.82,3.43-.86,5.31-3,8.52.81-1.2-1.6-1.58-1.33-3,.33-1.74-.21-3-.46-4.61C1007.09,99.07,1012.55,99.3,1012.57,100.91Z"/><path class="cls-11" d="M1035.36,263.18c-.58,4.93-2.62,9.56-4.47,14.18-3.45,8.62-6.29,17.49-10.09,26-3.91,8.73-8.82,17-13.71,25.2-2.56,4.31-5.33,8.82-9.73,11.23a15.51,15.51,0,0,1-5.56,1.75,17.32,17.32,0,0,1-5-.13c-1-.18-2.16-.59-2.47-1.57s.51-2.07,1.26-2.87c2.88-3,6.15-5.7,8.06-9.41,3.87-7.51,6-15.82,9.69-23.42a66.92,66.92,0,0,0,3.9-8.32c.69-2.08,1.11-4.25,1.68-6.37,2.65-9.79,4.85-20.06,9.85-28.88a24.1,24.1,0,0,0,3.05-7.08,20.8,20.8,0,0,0,.25-4.6c-.22-7.82-1.56-15.58-1.91-23.39-.29-6.4-1.39-12.94-1.2-19.34.31-10.62-1.11-21.2-1.38-31.81-.12-4.57-.23-9.22.92-13.64s3.75-8.69,7.81-10.79a36.77,36.77,0,0,0-5.83,26.57,15.4,15.4,0,0,1,3.48-8.13c-3.08,7.39-3.38,15.6-3.64,23.61a96.34,96.34,0,0,1,3.22-10.63c1.57-4.28,3.79-8.81,8-10.66a49.39,49.39,0,0,0-9.69,35.7c1.38-6.07,2.86-12.23,6-17.61a12.14,12.14,0,0,1,4.59-4.93,63.38,63.38,0,0,0-5.15,10.33c-.9,2.31-1.65,4.68-2.4,7-1.63,5.12-3.28,10.51-2.17,15.76.88,4.19-.12,8.13-.13,12.41a26.45,26.45,0,0,0,.82,8c.82,2.56,2.4,4.82,3.27,7.36a25.53,25.53,0,0,1,1,8.31,15.47,15.47,0,0,0,6.29,5.06,5.2,5.2,0,0,1,2.58,1.81,3.72,3.72,0,0,1,0,2.91,2,2,0,0,1-.77,1.21C1035.38,264.3,1035.46,263.65,1035.36,263.18Z"/><path class="cls-10" d="M1054.87,138.34c-.21-1.17-1.82-1.34-3-1.17a44.78,44.78,0,0,0-26.14,13.59c.09-.1-.06-.59,0-.74a1.41,1.41,0,0,1,.41-.65,20.73,20.73,0,0,1,1.55-1.56A38,38,0,0,1,1031,145a40.33,40.33,0,0,1,7.54-4.53c.87-.39,1.76-.76,2.64-1.13s2-.83,3-1.17a31.38,31.38,0,0,1,6.14-1.31,7.15,7.15,0,0,1,2.65,0,2.68,2.68,0,0,1,2,1.63"/><path class="cls-10" d="M992.16,271.71a63.87,63.87,0,0,0-4.1-32.27c-2.33-5.76-5.49-11.14-8-16.84-3.54-8.1-5.68-16.73-7.8-25.31,1.25-.65,1.86,1.4,2.29,2.73l4.29,13.25a98.53,98.53,0,0,0,4.29,11.62c2,4.2,4.52,8.11,6.48,12.31C995,248.72,996.41,259.72,992.16,271.71Z"/><path class="cls-10" d="M962.55,248.53q-2.14-26.24-4.28-52.45c1.42-.37,1.82,1.76,1.75,3.22C959.12,216.22,963,231.59,962.55,248.53Z"/><path class="cls-10" d="M938.24,206.35c.63,2.26,1.69,4.09,1.11,6.84a19.06,19.06,0,0,0-.21,6.9.88.88,0,0,1-.88-.25L936.07,156c.91.48.89,1.68.82,2.71a133.16,133.16,0,0,0,.63,24.93c.33,2.73.74,5.46.81,8.2.11,3.86-.45,7.71-.5,11.57,0,2.4.57,4.87.65,7.3q.13,4.32,0,8.66"/><path class="cls-11" d="M998.82,142.51c4.5-6,9.06-12.12,11.56-19.18.74-2.08,1.29-4.23,1.84-6.37l1.62-6.29c.24,0,.2.11.45.14-1.2,6-2.61,12.09-5.38,17.58a74.66,74.66,0,0,1-5,8.15,32.46,32.46,0,0,1-6.22,7.51C998,143.24,998.28,143.22,998.82,142.51Z"/><path class="cls-3" d="M1002.81,95.65c2.76.65,4.49,3.44,5.22,6.18s.76,5.64,1.68,8.32a11.59,11.59,0,0,1,1.1,4.06,7.64,7.64,0,0,1-1.25,3.43,50.62,50.62,0,0,1-15.37,17.11,33.91,33.91,0,0,1-22,5.89,2.93,2.93,0,0,1-1.34-.38c-1.08-.73-.77-2.36-.55-3.66,1.06-6.18-3-12-4-18.23-.74-4.58.14-9.56-2.06-13.65,6.48-2.83,13-5.82,19.79-7.73S995.92,94,1002.81,95.65Z"/><path class="cls-7" d="M1005.92,60.62a38.46,38.46,0,0,0,.43,8.71l4.43-2A2.73,2.73,0,0,1,1013,67c.88.4,1.08,1.53,1.16,2.48a27.47,27.47,0,0,1,0,6.78,9.59,9.59,0,0,1-3.08,5.89,11.83,11.83,0,0,0-2.37,2,6.51,6.51,0,0,0-.9,2.79c-1,6.37.33,13.64-4.54,18.78-1.48,1.58-4.56,1.91-6.37,3.15-1.47,1-2.27,2.7-3.44,4-4,4.56-12.45,6.38-18,4.09-2.5-1-3.33-3.16-4.95-5.17-3.5-4.38-8.84-7.29-11.34-12.31C956.35,94,957.64,87,954.5,81.66c-.91-1.55-2.16-2.88-3-4.45a5.62,5.62,0,0,1-.51-5.14c.82-1.6,3.27-2.32,4.48-1a70.88,70.88,0,0,1,0-12.7c7.74-6.14,16.25-9.14,26.12-8.58S998.92,53.64,1005.92,60.62Z"/><path class="cls-3" d="M978.66,90.7l-4.73-2.37a5.34,5.34,0,0,1-2.26-1.7,4.48,4.48,0,0,1-.14-3.71c.52-1.67,1.36-3.22,2-4.83a10.51,10.51,0,0,0,1-5.09,4.85,4.85,0,0,0-2.83-4.1c2.33.43,4.55.6,5.51,2.76,1.07,2.4-.2,5.19-1.78,7.29-1.39,1.84-3.16,3.92-2.56,6.15A6.43,6.43,0,0,0,975.11,88a8,8,0,0,0,3.7,2.18C978.67,90.4,978.79,90.47,978.66,90.7Z"/><path class="cls-9" d="M1006.57,57.54a3.56,3.56,0,0,1-.42,5.53,4.73,4.73,0,0,1-4.17.06,17.55,17.55,0,0,1-3.62-2.35c-7.5-5.61-17.44-8.89-26.35-6a42.44,42.44,0,0,0-5.38,2.3,28.27,28.27,0,0,0-7.73,4.81c-2.22,2.16-3.71,5-6.09,7a.87.87,0,0,1-.55.25c-.4,0-.52-.56-.54-1l-.3-8.23c6.69-5.06,13.56-10.3,21.91-11.17a42.06,42.06,0,0,1,6.35,0,66.63,66.63,0,0,1,14.63,1.94A32.52,32.52,0,0,1,1006.57,57.54Z"/><path class="cls-7" d="M1060.71,221.61a153.5,153.5,0,0,1-4,23.25,49.06,49.06,0,0,0-1.78,9.25c-.14,3.23.46,6.46.24,9.67-.27,3.62-1.84,5.2-3.9,7.82-1.84,2.36-2,5.57-2.71,8.49-1.45,6-3.15,10.73-6.66,15.77-3.15,4.5-5.3,9.31-7.72,14.21-2.15,4.36-5.34,8.13-8,12.18-3.37,5.13-9.52,11.16-12.87,16.33a26.12,26.12,0,0,0-4.08,10.83c-.48,3.73-.12,7.56-.93,11.24-1,4.62-3.81,8.62-6.55,12.49a11.91,11.91,0,0,1-3.55,3.72,21.58,21.58,0,0,0-3.85,2.58c-1.08.79-2.09,2.06-3.41,1.9-.58-.07-1.08-.41-1.66-.45-1.13-.1-2,.92-2.78,1.75s-2,1.62-3,1c-.72-.45-.95-1.53-1.76-1.82-.65-.23-1.34.2-1.95.49a6.27,6.27,0,0,1-7.67-2.15,3.46,3.46,0,0,1-.67-2c0-1.21,1-2.19,1.71-3.17,2.54-3.32-.5-5.31-1.72-9.31a2.2,2.2,0,0,0-.47-.94c-.83-.84-2.27-.08-3,.86s-1.3,2.16-2.45,2.42c-3.92-3.41,2.15-8.27,5.68-11.27,6.29-5.32,18.29-13.19,23.07-19.92a72.23,72.23,0,0,0,8.79-15.16c2.76-7,3.59-14.6,5.64-21.84,1.07-3.83,2.49-7.55,3.89-11.27,4.86-12.84,10.61-26,15.48-38.85.06-.18.14-.36.2-.54a37.38,37.38,0,0,1-4.29-7.42,31.54,31.54,0,0,1-1.87-12.11,107,107,0,0,1,1.06-12.15c.29-2.49,0-2.2,2.43-2.61a62.46,62.46,0,0,1,7.24-.36l13.85-.69a88.64,88.64,0,0,1,11.75-.14c2.57.23,2.25,0,2.62,2C1061.46,217.45,1060.87,219.84,1060.71,221.61Z"/><path class="cls-3" d="M1028.15,249.74c.06-.18.14-.36.2-.54a37.38,37.38,0,0,1-4.29-7.42,31.54,31.54,0,0,1-1.87-12.11c.31-1.3.86-2.58,1.14-3.88a20.06,20.06,0,0,0,4.44,15c1.37,1.69,2.49,2.68,4.77,2.72A32.86,32.86,0,0,1,1028.15,249.74Z"/><path class="cls-3" d="M986.86,371.22l-4.66,8.84a5,5,0,0,1-.93,1.37,2.55,2.55,0,0,1-2.11.65c1.43-2.65,2.9-5.19,4.53-7.72A12.14,12.14,0,0,1,986.86,371.22Z"/><path class="cls-3" d="M995,370q-3.24,4.89-6.15,10c.44.51,1.09.28,1.52-.24a4.42,4.42,0,0,0,.7-1.86,11.09,11.09,0,0,1,1.52-3.49C993.43,373.07,995,371.63,995,370Z"/><path class="cls-3" d="M996.89,353a39.94,39.94,0,0,1,4.53-6.34c.28-.31.46-.32.84-.16C1000.9,349.17,997.94,350.1,996.89,353Z"/><path class="cls-3" d="M1036,301.67A109.09,109.09,0,0,0,1048.73,270c.66-.24.93.95,1.07,1.64a3.65,3.65,0,0,1-.39,2C1045.44,283.63,1040.79,292.06,1036,301.67Z"/><ellipse class="cls-8" cx="843.04" cy="645.74" rx="39.32" ry="33.44" transform="translate(53.18 1355.53) rotate(-79.39)"/><ellipse class="cls-18" cx="844.32" cy="645.74" rx="23.09" ry="19.64" transform="translate(54.23 1356.8) rotate(-79.39)"/><ellipse class="cls-19" cx="844.32" cy="645.74" rx="9.47" ry="8.06" transform="translate(54.23 1356.8) rotate(-79.39)"/><path class="cls-20" d="M668,619.81l131,56.91,15.87-30.43,25.73,14.16,16.73-27L833,609l110.7-204.48s7.72-19.3,19.3-28.3c0,0,3.86,9,10.29,3.87s-1.28-18-1.28-18-12.86-11.58-11.58,5.14l-10.94,8.36s-35.38,36.64-36.67,36.64-47.61,54-47.61,54Z"/><polygon class="cls-21" points="860 534.39 707.45 468.83 691.52 454.58 773.84 459.76 866.94 524 860 534.39"/><polygon class="cls-21" points="930.79 409.65 771.31 343.25 759.74 328.55 872.94 324.73 937.77 393.26 930.79 409.65"/><polygon class="cls-21" points="795.63 665.58 773.77 659.14 681.16 623.09 622 589.62 691.47 587.44 779.17 634.75 795.63 665.58"/><polygon class="cls-5" points="696.6 615.37 795.63 665.58 860 534.39 763.54 477.76 696.6 615.37"/><polygon class="cls-5" points="841.51 346.58 771.26 473.9 862.57 531.82 930.79 409.65 841.51 346.58"/><polygon class="cls-5" points="919.28 220.55 851.06 338.9 930.79 405.22 1000.3 286.18 919.28 220.55"/><polygon class="cls-22" points="919.28 220.55 825.38 217.94 759.74 328.55 851.06 338.9 919.28 220.55"/><polygon class="cls-22" points="691.52 454.58 771.26 473.9 841.51 346.58 756.7 338.86 691.52 454.58"/><polygon class="cls-22" points="622 589.62 696.6 615.37 763.54 477.76 682.51 464.87 622 589.62"/></g><g id="Layer_4" data-name="Layer 4"><polygon class="cls-22" points="1047.15 742.73 1163.05 638.77 1393.92 673.93 1396.98 721.33 1335.69 784.71 1047.15 742.73"/><polygon class="cls-5" points="1340.4 878.81 1335.69 784.71 1047.15 742.73 1049.91 829.88 1340.4 878.81"/><polygon class="cls-21" points="1335.69 784.71 1340.4 878.81 1396.98 826.66 1396.98 721.33 1335.69 784.71"/><path class="cls-21" d="M1098.82,698.08c-1.82.48-1.61,3.23-.51,4.77,2.8,3.91,8.51,5.14,13,3.3s7.5-6.31,8.31-11.06c.51-3,.26-6.16,1.66-8.83,2.27-4.32,7.75-5.49,12.21-7.49a26.71,26.71,0,0,0,7.68-5.24,61.21,61.21,0,0,1,5.25-5.19,23.51,23.51,0,0,1,5.69-3c14.92-6,31.49-6.35,46.82-11.15,5.53-1.74,11-4.06,16.77-4.3a2.79,2.79,0,0,0,1.25-.24c1-.57.79-2.09.18-3.06-1.54-2.43-4.5-3.49-7.27-4.25a93.51,93.51,0,0,0-53.9,1.84,106.84,106.84,0,0,0-45.08,29.94,41,41,0,0,0-6.47,8.92c-2.72,5.44-3.49,11.93-7.43,16.55"/><path class="cls-7" d="M1344,589.54c-1.15,4.8-1.83,10.51-5.73,13.54-16.12,12.51-34.14,20.32-53.88,25.51-25.77,6.78-51.5,14.68-77.5,20.44-16.8,3.72-33.38,7.87-50.14,11.91-3.62.87-7.34,1.76-10.4,3.88-2.45,1.7-4.33,4.09-6.45,6.18a34.56,34.56,0,0,1-12.74,8c-2.84,1-6.12,1.87-7.59,4.5a11.82,11.82,0,0,0-1,4.84c-.38,4.52-1.43,9.24-4.48,12.59s-8.63,4.75-12.24,2-3.76-8.24-3.5-12.88c.53-9.42,4.35-18,5-27.43.37-5,.44-10,1.92-14.75,3.62-11.59,14.88-19.07,26.16-23.56s23.47-7,33.8-13.37c4.31-2.67,8.22-6,12.48-8.71,5.44-3.51,11.4-6.09,17.09-9.17,9.62-5.21,18.41-11.81,27.15-18.38,14.69-11,30.8-19.94,46.21-30,7.84-5.1,15.78-10.25,24.62-13.32s18.81-3.86,27.44-.24a42.71,42.71,0,0,1,12.61,8.76,37.12,37.12,0,0,1,7.93,10c3,6,3.35,12.88,3.5,19.56S1345.54,582.92,1344,589.54Z"/><path class="cls-3" d="M1145.42,663.46c-.81-3.38-1.68-6.88-3.82-9.62a21.23,21.23,0,0,0-2.61-2.67,68.58,68.58,0,0,0-8-6.09,3.54,3.54,0,0,1,2.92.55c.8.64,1.44,1.45,2.2,2.13,1.82,1.61,4.26,2.39,6,4.06a11.5,11.5,0,0,1,2.38,3.49,22.36,22.36,0,0,1,2.15,8.91A1,1,0,0,1,1145.42,663.46Z"/><path class="cls-3" d="M1120.64,650.71a31.18,31.18,0,0,0-16.42,18.52c.16.5-.19,1.42,0,1.92a35.84,35.84,0,0,1,6.55-12,24,24,0,0,1,11.29-7.57C1121.26,651.23,1121.4,651,1120.64,650.71Z"/><path class="cls-3" d="M1148.7,657.12a40.38,40.38,0,0,0-4.5-8.68,19.54,19.54,0,0,0-7.32-6.37c.79-.62,1.66,0,2.46.58a29.79,29.79,0,0,1,6,6.26C1147.48,651.88,1148.63,653.46,1148.7,657.12Z"/><path class="cls-3" d="M1210.42,627.93q-25.45,9.72-50,21.65c-.5.83-2.14,2.76-2.63,3.58C1174.81,643.56,1192.5,635.69,1210.42,627.93Z"/><path class="cls-3" d="M1313.69,593.88a7.06,7.06,0,0,1,2.47,7.26c-.61,1.89-2.17,3.3-3.68,4.58a193.68,193.68,0,0,1-32.63,22.49c16.92-6.28,33.85-12.56,50.47-19.61a11,11,0,0,0,3.6-2.11,3.78,3.78,0,0,0,1.1-3.82,5.38,5.38,0,0,0-2.72-2.53c-6-3.27-12.63-5.56-17.65-10.17a16.72,16.72,0,0,0-3.71-3c-2-1-6.26-.12-5,2.95C1306.83,592,1312,592.43,1313.69,593.88Z"/><path class="cls-19" d="M1113.12,694.65c-1.88,1.16-4.28.7-6.49.77a26.08,26.08,0,0,0-4,.55l-2,.4c-.06-1.57-.62-3.08-.28-4.61a6.09,6.09,0,0,1,2.45-3.87,8,8,0,0,1,1.62-.76,7.45,7.45,0,0,1,4.34-.61,5.11,5.11,0,0,1,3,2.4,10.23,10.23,0,0,1,1.23,3.75A6,6,0,0,1,1113.12,694.65Z"/><path class="cls-9" d="M1378.56,806.5c-4.64,31.68,2.33,64-.69,95.91-1.85,19.51-7.43,38.49-8.76,58.06-.62,9.11-.89,15.07,4.6,22.24,5.07,6.62,9.85,13,16.63,18s14.64,8.44,22.53,11.51a347.32,347.32,0,0,0,64.44,18.16c59.25,10.67,120,5.8,180.23,6,14.6.05,31.9,1.72,39-11,3.14-5.58,2.86-12.46,1.43-18.7s-3.9-12.23-5-18.54c-2-12.17,1.4-24.53,1.89-36.86.52-13.11-2.28-26.09-4.2-39.06a290.21,290.21,0,0,1-3.08-44.76c.06-7.3,1.6-15.15,1-22.37-.44-5.8-3.38-11.33-4.33-17.1-1-6.15-.05-12.43.9-18.59,1.58-10.29,4.71-21.54,4.27-31.88-.46-10.9-3.26-22.11-5.35-32.78-4.29-22-9.38-44-10.27-66.46,5.42-8.17,3.16-19.28,6.92-28.33,1.71-4.12,4.6-7.63,6.76-11.54,7-12.74,5.7-29.18,3.51-43.56,10.1,11.29,13.45,27.13,22.14,39.54,2.68,3.83,3.93,7.72,6,11.61,2.5,4.6,7.65,8.83,11.1,12.78,2.47,2.82,5,5.73,6.21,9.27,1.05,3.07,1.05,6.4,1.83,9.55s2.72,6.38,5.87,7.16a13.32,13.32,0,0,0,5.5-.3c6.31-1.11,12.76-.9,19.16-.69,23.78.77,47.58,1.54,71.22,4.12,5.4.59,11.4-.38,16,2.41,1-3.24.42-6.73-.15-10.07-2.46-14.38-4.71-28.86-8.9-42.83q-12.39-41.28-27.29-81.75c-4.73-12.83-9.24-26-14.79-38.45-5.25-11.79-8.14-24.47-13.38-36.27-5.4-12.15-18.69-21.74-23.16-34.28a145.5,145.5,0,0,0-8.19-18.73c-4.1-7.82-11.11-13.46-17.18-19.76S1730,395.88,1723.32,390a128,128,0,0,0-15.61-11.32c-8.7-5.66-16.26-10.51-25.36-15.5l-19.15-10.49a93,93,0,0,1-12.63-7.83c-7.2-5.63-13-11.08-20.33-16.6-8.77-6.64-23.35-14.39-26.14-26-.46-1.93-.56-4-1.39-5.76-1.07-2.36-3.24-4-5.49-5.31a32.77,32.77,0,0,0-10.12-3.79,36.35,36.35,0,0,0,8.33,15.39,7.41,7.41,0,0,1,2.08,3.17c.54,2.53-1.85,4.64-4,6.11-15.62,10.86-27.65,25.45-45.41,32.24l-27.49,10.52c-3.31,1.27-6.75,2.55-10.27,2.27s-6.49-2-9.69-3.15a34.06,34.06,0,0,0-10.13-2.09,1.91,1.91,0,0,0-2.39,1.82L1474.36,406c.87-11.78-2.57-22.53-5.47-34a32.63,32.63,0,0,1,2.86-23.18,19.68,19.68,0,0,0,2.25-4.95c.57-2.62-.29-5.3-1.13-7.84-.63-1.88-1.52-4.52-1.29-6.49l1.79-15.68-12.43,16.15a39.77,39.77,0,0,1-7.48,8.05c-6.51,4.82-15.16,5.2-23.22,5.94-9.81.91-19.91,2.77-28,8.42-6.28,4.41-10.85,10.77-15.3,17-7.41,10.38-14.87,20.87-19.88,32.61-3.4,8-5.62,16.39-8.73,24.47-4.22,11-10.06,21.26-15.87,31.49-4.29,7.53-8.62,15.12-14.36,21.61-4.14,4.68-9.14,9-11.09,14.92-.79,2.41-1.06,5-2.38,7.21-2.33,3.81-7.25,5.2-10.11,8.62s-3.18,8.61-4.67,13-5.92,8.79-10.23,7.05c-1.84.61-1.53,2.69-1.34,4.63a13.22,13.22,0,0,0,2.25,5.32c10,16.41,12.09,37.39,26.75,49.81,4.89,4.14,10.46,7.37,16,10.58,2.55,1.48,5.28,3,8.23,2.92a19.56,19.56,0,0,1,3.81-.17c1.26.2,2.54,1.25,2.37,2.51a36.38,36.38,0,0,0,22.17-13,109.94,109.94,0,0,1,.84,14.16c-.12,28.11,3.29,56.1,2.93,84.21C1373.13,731.45,1384.36,767,1378.56,806.5Z"/><path class="cls-10" d="M1465.57,492.14a42.1,42.1,0,0,1,.6-22.19c1.4-4.62,3.6-9,5-13.57,4.64-14.8,1.22-30.82,2.59-46.26.7-7.9,2.65-16,.64-23.65-1.38-5.3-4.58-10-5.52-15.44s.11-11.9-4-15.48c-2.56-2.22-6.33-2.41-9.64-1.71s-6.42,2.17-9.72,2.89c-.44,7.45-1.69,15.16-1.62,22.62l4.87-6.55c9.77,11.63,9.4,28.32,11.44,43.36,1,7.55,2.78,15,3.41,22.58.54,6.57.22,13.18.25,19.78a192.66,192.66,0,0,0,3.2,34.32C1466.29,493,1466.36,492,1465.57,492.14Z"/><path class="cls-10" d="M1613.77,343.81a75.37,75.37,0,0,0,13.15-13c.34-1.4-1.43-2.56-2.83-2.24a6.56,6.56,0,0,0-3.31,2.64,335.11,335.11,0,0,1-26.18,28,117.05,117.05,0,0,0-12,13c-3,4.05-5.53,8.53-8.94,12.28s-8,6.8-13.09,6.82c-6.85,0-12.37-5.28-17.46-9.87A140.46,140.46,0,0,0,1511,359.78c2.4,2.34,4.9,4.91,7.88,6.44s6.21,2.62,9.08,4.36a45.46,45.46,0,0,1,5.35,4c4.22,3.51,8.47,7.05,11.88,11.35a26.64,26.64,0,0,0,3.38,3.88A18,18,0,0,0,1552,392a34.14,34.14,0,0,0,10.07,3.67,14.79,14.79,0,0,0,10.35-1.85c5.55-3.65,6.82-11.1,10.26-16.78a23.43,23.43,0,0,1,5.71-6.4c7.51-5.78,11.88-13.72,18.12-20.86C1609.05,346.85,1610.7,346.17,1613.77,343.81Z"/><path class="cls-10" d="M1754.54,422.16c-7,3.94-14.32,8.1-19,14.71-2.42,3.47-4,7.46-6.43,10.92-4.29,6.09-10.89,10.07-16.32,15.17-5,4.7-9,10.35-13,16l-21.63,30.5c-4.11,5.79-8.27,11.68-10.51,18.41s-2.32,14.54,1.47,20.53c.57.9-.64,1.62-1.63,1.26-.57-.21-1.22-.72-1.68-.32-1.95-6.73-4-13.23-2.3-20,1.06-4.16,3.42-7.86,5.78-11.45q13.31-20.31,27.63-39.91a182.42,182.42,0,0,1,12.58-15.81c7.53-8.22,16.43-15.21,23.1-24.15,2.3-3.08,4.34-6.4,7.13-9.06,4.12-3.92,9.56-6.1,14.85-8.19C1754.89,421.52,1755.29,421.74,1754.54,422.16Z"/><path class="cls-10" d="M1656.85,643.93c0,.84,1,1.27,1.8,1.51,3.4,1,7.15,2,10.41.62a14.92,14.92,0,0,0,4.71-3.82q2.58-2.78,5.1-5.61l-3.46,26.78a27.3,27.3,0,0,1-1.43,6.65c-.66-3.56-3.36-6.72-5.65-9.53-9.93-12.19-19.88-24.39-30.65-35.84A332.88,332.88,0,0,0,1589,582.1c-15.45-11.05-32-20.87-45.45-34.25a65.07,65.07,0,0,1,15.38,9c3.19,2.55,6.15,5.36,9.39,7.85,3,2.26,6.1,4.23,9.18,6.29,5.21,3.49,10.24,7.26,15.26,11l11.77,8.82a106.1,106.1,0,0,1,12.63,10.52c2.59,2.66,4.89,5.58,7.59,8.13,4,3.75,8.65,6.62,12.64,10.33a81.21,81.21,0,0,1,7.5,8.43C1649.76,634.27,1652,637.88,1656.85,643.93Z"/><path class="cls-10" d="M1670.81,572.81a105.55,105.55,0,0,1-20.88-5.67c-5-1.94-10-4.33-13.89-8.06-2.52-2.42-4.53-5.35-7.19-7.62a31.77,31.77,0,0,0-9.25-5.1,81.82,81.82,0,0,0-20.91-5.13c-4.3-.48-8.84-.68-12.51-3,5.56,3.85,11.36,1.9,18.13,1.78a55.73,55.73,0,0,1,19.45,3.12,31.05,31.05,0,0,1,11.54,6.64c2.49,2.42,4.35,5.41,6.62,8C1649.5,566.65,1659.84,569,1670.81,572.81Z"/><path class="cls-10" d="M1358.87,583.91c3.88-3.79,4.14-10,2.62-15.25s-4.49-9.87-6.32-15c4.21,4.31,8.58,8.89,10.09,14.72,1.44,5.52.06,11.44-2.42,16.57a3.3,3.3,0,0,0-.48,1.71c.11,1.08,1.22,1.7,2.09,2.35s1.62,1.93.9,2.74a2.29,2.29,0,0,1-.76.48l-9.26,4.3c2.71-1.26-3.74-8.4-4.22-9.08C1353.22,585.67,1356.59,586.13,1358.87,583.91Z"/><path class="cls-10" d="M1320.51,539.32a32.23,32.23,0,0,0,1.72-8.35l-.1,21.31c-2.28-7.13-6.21-13.63-8.81-20.66-1.36-3.68-5.41-17.16-.6-19.56C1312.88,521.93,1314.68,531.1,1320.51,539.32Z"/><path class="cls-10" d="M1370.67,587.24c.17,2.19.14,4.83-1.7,6q.39-34.29-2.23-68.52c-.46-6-1-12-.39-17.89.52-5.23,1.9-10.33,2.88-15.5a103.84,103.84,0,0,0-1.63-45.86c-1.76-6.65-4.29-13.28-8.9-18.38a143.64,143.64,0,0,1,14,32.71c-1.47-5.1.43-13.1,1.43-18.17,1.06-5.4,2.39-12.1,5.45-16.74-1.62,21-5.47,41.95-7.36,63-1.9,21.19-3.06,42.46-3,63.74Q1369.35,569.44,1370.67,587.24Z"/><path class="cls-10" d="M1392,975.48c-8.18-5.34-12.66-15.13-13.54-24.85s1.41-19.44,4.36-28.75a23.8,23.8,0,0,0-6.17,14.67,80.05,80.05,0,0,1,6.45-42.12,21.87,21.87,0,0,0-6.51,15.67c.18,16.5-2.57,30.72-2.94,47.21a13.78,13.78,0,0,0,.78,6.1,13.24,13.24,0,0,0,3.44,4.1C1382.39,971.57,1386.85,972.13,1392,975.48Z"/><path class="cls-10" d="M1635.11,980c-32.4,4.33-64.35-12.34-88.56-34.31a209.41,209.41,0,0,1-40.29-49.85c8.82,22.82,25.94,39.47,44.18,55.78,7.08,6.33,14.24,12.71,22.55,17.31C1591.77,979.29,1613.65,980,1635.11,980Z"/><path class="cls-10" d="M1664,1001a40.49,40.49,0,0,1-14.13,5.53,69.42,69.42,0,0,1-59.48-15.69c7,7.12,14.19,13.31,23.68,16.33a49.81,49.81,0,0,0,15.12,2.08C1643,1009.25,1652.16,1008.1,1664,1001Z"/><path class="cls-10" d="M1676,866.42c-1.18,4.67-3.7,8.89-5.44,13.38a43,43,0,0,0,1.42,33.94c4.36,8.93,11.89,16.49,13.81,26.23-7.86-17.22-20.45-33.6-19.84-52.52.31-9.45,3.17-23.51,7.6-31.65C1677.8,856.73,1676.86,863.2,1676,866.42Z"/><path class="cls-10" d="M1402.39,611.7a233.68,233.68,0,0,1-.67-59.67c-2.14,21-2.48,42.21,1.12,63A31.49,31.49,0,0,0,1402.39,611.7Z"/><path class="cls-10" d="M1680.85,475.73c-1.67-11.62-2.66-23.43-1.46-35.11s4.68-23.29,11.34-33c-8.11,16.32-9.7,34-10.7,52.21C1679.68,466.38,1677.31,470.25,1680.85,475.73Z"/><path class="cls-11" d="M1591.26,300c1.29,1.4,2.9,2.51,4,4.07s1.5,3.85.24,5.27l5.81-4.49a5,5,0,0,0,1.63-1.75c.66-1.51-.31-3.2-1.27-4.54-2.58-3.58-5.67-7.22-10-8.29-1.58-.4-3.18-.72-4.72-1.2C1585.77,291.89,1589.33,297.94,1591.26,300Z"/><path class="cls-11" d="M1472.64,341.23a12.39,12.39,0,0,1,.3,3.26,13.85,13.85,0,0,1-1.19,3.95,78.93,78.93,0,0,0-4.21,14.11,8.89,8.89,0,0,0-1.07-3.44c-1.53-3.92-.15-8.28,1-12.34.63-2.3.83-10,2.36-11.47C1472.22,332.91,1472.36,339.66,1472.64,341.23Z"/><path class="cls-11" d="M1674.21,571.21c.18-.82-.59-1.49-1.2-2.07a11.23,11.23,0,0,1-3-6.28c-.42-2.32-.42-4.7-.65-7.05-.22-2.15.33-5-.78-6.81a89.1,89.1,0,0,1-11.14-62.34c1.06-5.54,2.65-11,4.24-16.36l15-50.89c-1.75,5.64-4.07,11.28-5.77,16.94-4.45,14.84-11.12,28.92-16,43.63s-8,30.5-4.92,45.69C1653.28,542.4,1664.13,557.45,1674.21,571.21Z"/><path class="cls-11" d="M1803.63,647.58c-10.07-2.77-20.61-5-30.91-3.21-3.53.6-7,1.66-10.57,2-4.6.38-9.21-.53-13.82-.56a14,14,0,0,0-5.57.88c-4.83,2.05-6.79,8.09-6.24,13.31a39.08,39.08,0,0,0-6.3-11.14c5.17-7.68,14.62-12.44,23.86-12.88,5.45-.26,10.86,1,16.18,2.22l27.15,6.29C1799.29,644.89,1802.63,645.93,1803.63,647.58Z"/><path class="cls-11" d="M1663.64,669c-2.35-5.32-6.66-9.49-10.87-13.5-14-13.32-28-26.7-44-37.51a111.91,111.91,0,0,0-18.91-10.56c2-1.35,4.79-.63,6.8.74l29.92,20.34a43.39,43.39,0,0,1,6.65,5.17c4.65,4.7,7.19,11.52,12.83,15,2.48,1.52,5.41,2.28,7.74,4,2.61,2,4.2,5,5.71,7.84C1661.22,663.76,1661.93,665.7,1663.64,669Z"/><ellipse class="cls-19" cx="1504.26" cy="365.8" rx="5.44" ry="6.12" transform="translate(694.33 1685.13) rotate(-72.12)"/><ellipse class="cls-19" cx="1487.44" cy="405.56" rx="6.12" ry="5.44" transform="matrix(0.5, -0.87, 0.87, 0.5, 392.5, 1490.94)"/><path class="cls-3" d="M1597.46,307.67c-5.13-6.68-9.68-13.42-10.06-21.83a81.91,81.91,0,0,1,1-14.58l3.92-29.73c-1.94,1.19-1.4,1.6-2.4,3.64-2.63,5.37-7.52,9.25-12.49,12.59-12.22,8.22-26,14.36-40.56,16.56s-29.93.29-42.92-6.66a59.75,59.75,0,0,1-20-17.35c-4.17,17.25-1.66,35-1,52.71.23,6.3-1.36,18.72-1.42,25,0,5.35,1.43,4.58,1.38,9.94,0,3.52-.08,7.12-1.22,10.46-.92,2.71-2.52,5.15-3.53,7.83-5.87,15.57,11.06,34.86,5,50.38,5-10.25,7.38-20.63,10.21-31.65,1.81-7,2.78-14.43,6.3-20.78a3.35,3.35,0,0,1,1-1.25c1-.65,2.36-.1,3.47.39,8.45,3.73,19.77,5,28.7,2.56s20.22-8.32,28.37-12.67c9.61-5.13,14.64-10.26,24.25-15.4C1583.76,323.49,1594,316.28,1597.46,307.67Z"/><path class="cls-7" d="M1451.39,168.41a13.11,13.11,0,0,0-1.36-11.85c-3,2.41-4,6.52-3.93,10.33s1,7.56,1.26,11.36c.49,7.7-2,15.32-1.91,23a35.92,35.92,0,0,0,4.61,17.27,7.81,7.81,0,0,0,2.78,3.18,3.09,3.09,0,0,0,3.88-.56c.58,5.39-.62,10.81-.52,16.23.23,11.85,6.66,22.82,14.74,31.48s17.87,15.54,26.81,23.33c14.25,12.44,38.06,7.1,55.64.1a73.78,73.78,0,0,0,39.79-38.45,45.08,45.08,0,0,0,4-14.39,3.14,3.14,0,0,1,.95-2.47c.84-.57,2-.13,3,.11a7,7,0,0,0,6.85-2.24c3.17-.93,4.44-2.38,6.07-5.26,3.2-5.67,6.41-11.38,8.55-17.53s3.17-12.84,1.87-19.22c-.69-3.39-2-6.73-1.71-10.17-1.2,1-3.56.07-4.76,1-1.46-6-.35-12.36-.1-18.56s-.64-13-5.1-17.34c-5.75-5.58-15.07-4.94-22.18-8.62-8-4.16-12.24-13.22-19.42-18.71-4.12-3.16-9.08-5-14-6.67a234,234,0,0,0-52.19-11.07c-8.45-.8-17.31-1.08-25.07,2.38a46.46,46.46,0,0,0-11.24,7.7c-4.36,3.8-8.61,8.06-10.58,13.5-1.88,5.19-1.48,10.87-1.42,16.39C1456.72,151,1452.89,160.32,1451.39,168.41Z"/><path class="cls-3" d="M1544.19,217.5a9.17,9.17,0,0,0-12.67-9.2,454.47,454.47,0,0,1,8.17-45.6,40,40,0,0,1,35.86-3.65,146.94,146.94,0,0,0-18,1.95,22.62,22.62,0,0,0-7.67,2.37c-5.11,3-7.33,9.15-8.74,14.9a169.75,169.75,0,0,0-3.71,22.41c-.2,1.86-.31,4,.94,5.37a12.54,12.54,0,0,0,3.1,2C1544.58,209.88,1545.58,214.15,1544.19,217.5Z"/><path class="cls-23" d="M1515.12,309.34a13.59,13.59,0,0,1-10.37,4.55,21.49,21.49,0,0,1-11.06-3.36,24.87,24.87,0,0,0-4.35-2.38c2.63,4.19,8,5.5,12.82,6.7a13.37,13.37,0,0,0,4.85.6,11.92,11.92,0,0,0,3.68-1.27,12.11,12.11,0,0,0,3.39-2.24C1515,311,1515.27,310.69,1515.12,309.34Z"/><path class="cls-8" d="M1458.68,155.76a203.82,203.82,0,0,1-1.29,21.75,2.09,2.09,0,0,1-4.15,0c-1.61-14.8-.46-30.28,1-45.24.33-3.32,1.07-10.77,3.71-12.1,2-1,1.7,1.48,1.6,4C1459.17,134.68,1458.9,145.17,1458.68,155.76Z"/><path class="cls-8" d="M1610.91,154.61a93.5,93.5,0,0,1-.7,40.13c-1.79,7.47-4.52,15.14-2.88,22.64,4.1-7,6.09-15.13,9.81-22.39,1.38-2.68,3-5.25,4.16-8,1.66-3.93,1.73-7.84,2.68-11.82,1-4.37,4.12-7.82,4.67-12.49.45-3.87-.4-7.76-1.25-11.56-.94-4.24-5.33-7.37-8-10.79-1,.86-2.79,1.3-3.78,2.16a18.65,18.65,0,0,0-4.79,5.43C1609.75,150.08,1609.3,152.79,1610.91,154.61Z"/><path class="cls-8" d="M1352,735.19l123.56-197.68a9.37,9.37,0,0,1,13.72-2.42l236,184.21a9.38,9.38,0,0,1,2.29,12.19L1616.19,919a9.39,9.39,0,0,1-13.45,2.89L1354.56,747.84A9.38,9.38,0,0,1,1352,735.19Z"/><polygon class="cls-19" points="1364.87 735.09 1490.24 551.62 1707.66 735.09 1598.8 915.5 1364.87 735.09"/><path class="cls-24" d="M1401.56,673.93v3.39a4.87,4.87,0,0,0,2.14,4l8.48,6.25a5.15,5.15,0,0,0,7.39-1.79L1436,662.94a6.65,6.65,0,0,1,1.82-2.09l9-6.76a6.2,6.2,0,0,0,2.42-4.14l1.45-11.14a7,7,0,0,1,1.07-2.9l14.47-22.27a5.22,5.22,0,0,0-1.08-6.89l-10.29-8.42a3.4,3.4,0,0,0-5,.74l-4,6.06Z"/><polygon class="cls-25" points="1398.51 676.99 1407.68 680.05 1459.66 602.07 1447.43 597.48 1398.51 676.99"/><path class="cls-7" d="M1687.67,826.49l54.27-30c7.93-4.38,15.87-8.77,23.49-13.68a200.51,200.51,0,0,0,38.66-32.51c5.63-6.11,11.15-12.8,18.42-17.05,3.5-2,6.93-2.76,9.87-5.36s5.46-5.47,9.51-6.65a46.25,46.25,0,0,0,4.82-1.3,12.69,12.69,0,0,0,6-6.2c2.78-5.49,3.16-11.94,2.21-18s-3.16-11.87-5.35-17.62c-27.46-11.82-59.37-9.1-89.16-6.78-4,.31-8.07.65-11.63,2.46-5.26,2.69-6,9.58-8.61,14.88-3.36,6.8-9.38,11.82-15,16.87-31.08,27.65-56.4,61.92-90.72,85.44-10.61,7.27-22.94,13.64-35.72,12.2-16.58-1.87-33.43-2.31-49.91.36a26.17,26.17,0,0,0-5.93,1.49,27.89,27.89,0,0,0-5.63,3.51L1500.13,836c-2.42,1.79-4.9,3.63-6.59,6.12s-2.49,5.81-1.27,8.57c1.43,3.24,5.13,4.81,8.6,5.5-4.77,1.06-6.33,7.14-6,12,.22,3.1.9,6.33,3,8.65s5.86,3.31,8.36,1.46c-1.77,3.38,1.15,7.37,4.32,9.49,3.76,2.51,8.86,2.39,12.3,4.64,3.86,2.53,5.39,6.75,10.26,8.63a20.6,20.6,0,0,0,14.39.11c.58,2,1.17,5.28,2.59,6.74,2.09,2.14,5.2,2.86,8.15,3.36a43.31,43.31,0,0,0,8.18.76c9-.22,16.28-4.25,23.08-9.47,8.1-6.22,17-11.6,25.23-17.62,2.61-1.91,5.27-3.88,7-6.59,2.94-4.51,3.11-10.62,6.8-14.53,2-2.13,4.46-4.24,6.58-6.25a43.48,43.48,0,0,1,6.24-5,73.73,73.73,0,0,1,7.93-4.27l12.45-6.05C1671.82,837.38,1677.87,831.9,1687.67,826.49Z"/><path class="cls-3" d="M1552.21,822.66c-2.06.85-3,3.13-4.12,5.08-3.31,6.09-8.9,10.61-14.76,14.32s-12.11,6.78-17.69,10.9c-2.23,1.65-4.42,3.5-7.09,4.25s-6,0-7.27-2.47c6.68.75,12.46-4.49,18.45-7.54,3.7-1.88,7.75-3,11.35-5.1C1540,837,1543.5,828.17,1552.21,822.66Z"/><path class="cls-3" d="M1532.71,878.64c.61-.17,1.31-.45,1.45-1.07a1.56,1.56,0,0,0-.05-.71c-.73-2.8-3.91-4.39-6.81-4.28s-13.93,3.54-11.91,7.7C1517.22,884,1529.43,879.59,1532.71,878.64Z"/><path class="cls-3" d="M1544.2,894.36c-2.88-1.6-6.37-1.41-9.66-1.3s-6.86,0-9.46-2c3.77-.11,7.33-.55,11.1-.66a16,16,0,0,1,5.17.42C1543,891.32,1543.73,892.69,1544.2,894.36Z"/><path class="cls-3" d="M1826.48,722.48a23.92,23.92,0,0,1-4.85,5.87c-26.06,25.18-56.34,45.54-83.8,69.2a60.77,60.77,0,0,0,15.6-6.19,116.84,116.84,0,0,0,15.32-11.1c18.46-15,36.93-30,55.26-45.09,3.27-2.7,6.57-5.44,9.07-8.85,1.82-2.47,3.22-5.29,5.45-7.39,2.4-2.27,5.78-3.73,7.16-6.74a13,13,0,0,0,.78-5.44,26.68,26.68,0,0,0-.78-7.72c-2.34-7.65-16.25-9-17.87-.44-.59,3.12.69,6.7.83,9.83C1828.85,713,1828.61,718.4,1826.48,722.48Z"/><path class="cls-19" d="M1503.87,852l-.22.1c-2.21,1-5.66-1.49-7-3a13.13,13.13,0,0,1-2.76-4.66,103.64,103.64,0,0,0,11-10.48c.15-.17,2.53,4.17,2.69,4.58,1,2.58,1.63,5.32.44,7.87C1507.09,848.32,1505.88,851,1503.87,852Z"/><path class="cls-9" d="M1615.75,147.17a47,47,0,0,1-2.48,12.19c-.76,2.2-1.82,4.49-3.84,5.66-2.61,1.52-6.06.6-8.42-1.29s-3.92-4.57-5.63-7.06a58.66,58.66,0,0,0-25.61-20.88,116.7,116.7,0,0,0-12.67-4.19,105.46,105.46,0,0,0-16.51-3.85c-10.89-1.35-22,.69-32.35,4.29s-20.12,8.73-29.88,13.77c-1.27.66-2.79,1.33-4.09.71a4,4,0,0,1-1.54-1.49c-4.89-7.3-2.54-18.88-9.76-23.9,5.14-5.9,12.78-8.44,20.12-11.15s14.94-5.33,22.49-7.75a127.82,127.82,0,0,1,16.28-4.38c16.25-3,33.27-.23,48.46,6.26a103,103,0,0,1,41.75,32.79C1614.52,140.16,1616,143.1,1615.75,147.17Z"/><path class="cls-10" d="M1629.48,165.81a157.35,157.35,0,0,0-23.16-30.74,152.44,152.44,0,0,0-22.26-19,88.77,88.77,0,0,0-23.62-11.36c-11.8-3.64-23.24-6.64-35.67-5.74-11.16.8-22,4.92-32.5,8.7-8.31,3-16.71,6.11-23.87,11.28s-13.05,12.7-14.3,21.44a86.67,86.67,0,0,1,1-18.55c1.94-11.81,3.91-23.75,8.48-34.82s12.08-21.33,22.65-26.95a77.76,77.76,0,0,1,12.73-5c11.76-3.81,23.59-7.64,35.84-9.27s25.07-1,36.41,4c10.52,4.57,22.49,7.9,32.25,13.91s18.24,14.76,22,25.6c3.51,10.18,2.62,21.25,2.39,32a250.72,250.72,0,0,0,1,28.35C1629.36,155.16,1630.08,160.27,1629.48,165.81Z"/></g><g id="Layer_5" data-name="Layer 5"><path class="cls-3" d="M669.8,1008.19c4.66-1,8.82-3.54,13.22-5.28,4.88-1.94,5.51-2.09,7.51-7l-18-1.8c-10.49-1-21-2.1-31.34-4.15-15.61-3.08-30.68-8.41-46.31-11.41-7.78-1.49-13.38.45-21.14,1.54A194.3,194.3,0,0,1,550.1,982c-2.9,0-6,0-8.37-1.7s-3.36-4.33-4.19-7a64.41,64.41,0,0,1-2.95-18.22c-2.27-.28-3.7-1-6-.73-.41,0-.81.7-.4.68.59.4-.31-.52-.41.19a472.71,472.71,0,0,0-4.95,52c-.23,5.88-1.68,11.43-2,17.3-.07,1.24-.08,2.65.81,3.5a4.29,4.29,0,0,0,3.13.78c7-.13,14-.72,21-1.3l18.9-1.56c4.76-.4,9.52-.79,14.22-1.59,8.38-1.43,16.51-4.13,24.89-5.55,6.08-1,12.32-1.39,18.2-3.25,7-2.23,13.79-6.62,21.09-5.69a19.13,19.13,0,0,1,7.57-1.68C657.05,1008.61,663.56,1009.65,669.8,1008.19Z"/><path class="cls-7" d="M550,647.92c-5.48,11.28-1.78,24.93-5.71,36.82-2.13,6.45-6.45,12.15-7.81,18.81-.93,4.5-.42,9.18-1.09,13.74-.77,5.21-3.06,10.09-5.61,14.73-3.94,7.14-11.16,12-13.54,19.77-.58,1.91-2.3,3.12-4.24,3.9a17,17,0,0,1-2.58.77c-2.83.63-6,1.07-7.95,3.17-1.72,1.81-2.1,4.47-2.25,6.94q-.17,2.68-.09,5.4v0c0,1.35.15,2.69.29,4q.07.75.18,1.5c.63,4.78-.66,9.53-.94,14.35,0,.15,0,.29,0,.43-.23,4.67,0,9.53-4.26,11.68-3.84,1.93-8.45,1.26-12.7.54-3.55-.59-5.88-1-9.44-1.62a536.52,536.52,0,0,0-37.92-47.64c-2.67-3-5.52-6.32-5.55-10.27a15.51,15.51,0,0,1,.77-4.31c2.32-8.21,5.13-16.31,6.44-24.71s1-17.31-2.65-25c-2.06-4.33-5.14-8.16-6.88-12.61s-1.84-10,1.57-13.42a7.87,7.87,0,0,1,8.33-1.36,5,5,0,0,1,3.21,3.79c2.54-2.6,4.13-6.59,5.86-9.76,4.71-8.59,6.45-19.15,10.95-27.57a26.45,26.45,0,0,1,8.18-9.67c7-4.93,16.27-5.36,24.91-5.1q3.61.12,7.25.34h0q8.43.51,16.83,1.69c1.06.15,2.13.31,3.19.48h0c5.85.94,11.67,2.37,16.73,5.33l.23.13v0c6.36,3.81,10.17,10.37,13.2,17.27C548.09,643,549.07,645.5,550,647.92Z"/><path class="cls-3" d="M513,754.7c-.53.32-1.08.65-1.59,1a16.59,16.59,0,0,1-2.52.77c-2.77.63-5.85,1.07-7.79,3.17-1.68,1.81-2.05,4.47-2.2,6.94-.11,1.79-.13,3.59-.08,5.4v0a13,13,0,0,0,.28,4c.05.5.11,1,.17,1.5.62,4.78-.64,9.53-.91,14.35,0,.15,0,.29,0,.43-.45.86-.95,1.7-1.48,2.53-1.6,2.49-3.64,4.94-6.53,6s-6.32.62-9.35-.27c-5.7-1.65-11.11-4.8-14.21-9.58-2.14-3.29-3.07-7.12-4-10.89-1.52-6.39-4.57-14.09-.53-19.44,2.36-3.12,2.1-7.44.56-11s-4.22-6.52-6.58-9.63a68.28,68.28,0,0,1-8.73-15.43c5.54,10,15.92,16.66,25.92,22.9,6.82,4.26,14,8.65,22.15,9.42C501.42,757.49,507.26,756.08,513,754.7Z"/><path class="cls-8" d="M480.43,619.61c-.11.14-.36-.05-.31-.23s.22-.27.39-.34c7.91-3.53,16.9-4.13,25.5-3s16.86,4,25,7c2.51,1,4.95,1.5,6.78,3.48a30.91,30.91,0,0,1,7,12.64c.22.77.89,1.1.55,1.82a28.3,28.3,0,0,0-4.88-2.08c-1.71-.48-3.21-.91-4.9-.39-8.75-2.66-17.57-5.33-26.65-6.37a152.19,152.19,0,0,0-19-.59,51.7,51.7,0,0,0-10.77.87c-4.65,1-8.93,3.31-13,5.8a17.28,17.28,0,0,0-4.44,3.47,18.82,18.82,0,0,0-2.7,5c-3.72,9.09-7.46,18.21-9.86,27.73-.87,3.48-1.68,7.21-4.21,9.75.36-2.84.71-5.8-.32-8.47-1.55-4-5.81-6.36-7.73-10.19-1.79-3.58-1.27-7.84-.7-11.8.65-4.52,1-8.1,3.9-11.75a39.92,39.92,0,0,1,9.22-8.32,87.58,87.58,0,0,1,15.85-7.93q8.71-3.55,17.63-6.57Z"/><path class="cls-9" d="M545.77,628.24c-3.15-1.86-6.73-2.69-10.25-3.48q-8.1-1.82-16.22-3.54c-4.3-.9-8.69-1.79-13-1.26-6.17.76-11.68,4.29-17.34,7-6.6,3.2-13.58,5.4-20.53,7.59-6.09,1.92-12.13,3.73-18.46,3.46a56.91,56.91,0,0,0-10.25,8.21,21,21,0,0,0-5.77,12c1.86-11,3.48-22,8.69-31.68a83.36,83.36,0,0,1,10.06-14c7.73-9.15,16.69-18.25,28-20.45a53.11,53.11,0,0,1,11.41-.56,84,84,0,0,1,16.38,1.49C524.92,596.76,541.1,610.86,545.77,628.24Z"/><path class="cls-10" d="M543.7,626c2.71,1,5.94,1.64,8.25,3.13a34.34,34.34,0,0,1,6.56,6,76.36,76.36,0,0,1,8,9.67c2.18,3.33,3.77,7.85,1.41,11.05-1.75,2.38-5,3-8,3.54l-12.78,2.12c1.36-8.12-2.16-16.55-8-22.42s-13.8-9.39-21.93-11.28a96.26,96.26,0,0,0-14.64-2.06c-4.61-.35-8.78-1-13.06,1,3.77-2,6.39-3.69,10.37-5.21a29.7,29.7,0,0,1,9.94-2.35A82.79,82.79,0,0,1,532,622.1a97.67,97.67,0,0,1,11,3.6Z"/><path class="cls-9" d="M348.66,1079.1Z"/><path class="cls-9" d="M348.66,1079.1h-.09C348.47,1079.09,348.59,1079.09,348.66,1079.1Z"/><path class="cls-9" d="M535.62,880.8c.1-8.35.13-16.71-.41-25l.42,0c-.3-8.85-2.71-17.83-8.13-24.83-4.76-6.16-9.36-12.26-15-17.63l-11.33-10.81c-1.57-1.49-2-3.14-2.37-5.27a11.85,11.85,0,0,1,.29-4.06,41.11,41.11,0,0,0-1-18.81c.85,3.55-1.89,7-3.33,10.33q-2.32,5.41-5.09,10.62c1.16-2.19-9-9.71-10.15-11.11-3.87-4.54-7.14-9.63-11.65-13.6-3.15-2.77-6.8-4.89-10.27-7.24-11.6-7.85-21.74-18.54-35.13-22.65-3,4.53-5.4,10.12-5.52,15.55,0,1.42-.47,3.37-1.89,3.29-.68,0-1.21-.6-1.78-1a4.75,4.75,0,0,0-4.88,0,9.19,9.19,0,0,0-3.37,3.8,6.93,6.93,0,0,1-1.67,2.46c-1.81,1.4-4.43.27-6.71.51-3.57.39-6.69,4.23-10.07,3-2.62-.95-3.88-4.63-6.66-4.73a5.78,5.78,0,0,0-2.66.79l-10.14,4.86a2.28,2.28,0,0,1-1.18.32c-.6-.06-1-.56-1.51-.92a3.82,3.82,0,0,0-5.29,1c-2.63,4.12-7.25,6.31-11.77,8.17-2.08.84-4.38,1.47-5.85,3.16s-1.79,4.33-2.83,6.45c-1.2,2.47-3.42,4.26-5.49,6.06a96.24,96.24,0,0,0-11,11.3c-1.53,1.87-3.06,3.85-5.18,5s-4.48,1.38-6.56,2.45c-4.57,2.34-6.35,7.84-7.71,12.79-.18.63-.92-.46-.76.17.07.27,2.85-1.17,3-1.38,5.88-6.1,15.63-6.5,23.3-4.27a26.72,26.72,0,0,0-8.51-.29l11.36,1.41c3.08,1.62,5,4.14,7.89,6.26a20.62,20.62,0,0,1,3.55,3.31,32.3,32.3,0,0,1,3.85,9.89c1.71,8.8,3.41,17.93,1.27,26.64-.6,2.42-.55,3.71-1.95,5.78a44.58,44.58,0,0,1-7.67,9.14,19.53,19.53,0,0,1-10.7,4.94c-.39.41,0,.89.48,1.26a2.49,2.49,0,0,0,1.58.46c2.58.05,5-1.22,7.63-1.21a16.21,16.21,0,0,1,3.58.58c2.4.59,5.13,1.45,6.08,3.73a7.32,7.32,0,0,1,.41,2.63,35.65,35.65,0,0,1-.48,6.36c-3.09,18.41-3.59,37.31-4.71,55.91s-2.59,37.3,1.8,55.59c0,.18.09.36.13.54,1.58,6.4,3.85,12.69,4.31,19.26,1.08,15.57.13,31.69.37,47.29h183c1.2,0,1.22-1.16,1-2.34a15.73,15.73,0,0,0-1.5-3.26,16.3,16.3,0,0,1-1.12-5.84q-.48-7.38-1-14.75c-.64-9.79-1.29-19.59-1-29.4.18-7.18.84-14.34,1.51-21.49q2-21.85,4.06-43.72l2.76.86q0-23.82.9-47.64C537.63,901.2,535.5,891.11,535.62,880.8Z"/><path class="cls-10" d="M395.89,805.44a33.78,33.78,0,0,0-14.11-25.11,19.36,19.36,0,0,0-7-3.27,23.35,23.35,0,0,0-8.25.12,89.09,89.09,0,0,0-25.95,8c-.51-.07-.33-.68.11-1,7.65-4.76,15.71-9.67,24.7-10.24a42.69,42.69,0,0,1,13.32,1.65,23.18,23.18,0,0,1,5,1.76,18.27,18.27,0,0,1,6.63,6.5C394.74,790.8,398,797.56,395.89,805.44Z"/><path class="cls-10" d="M357.15,857.92a70.11,70.11,0,0,0,2-14.13A38.26,38.26,0,0,0,357.87,831a20.18,20.18,0,0,0-7.17-10.55c-3.19-2.28-7.07-3.32-10.86-4.32-8.82-2.33-18.48-4.6-26.79-.84-.18.39-1,.29-.57.25a14,14,0,0,1,9.31-4.12,31.66,31.66,0,0,1,10.3,1.3,88.69,88.69,0,0,1,12.06,4.09,22.59,22.59,0,0,1,6.63,3.87,20.92,20.92,0,0,1,4.14,5.78c3.79,7.23,5.85,15.71,3.93,23.64A69,69,0,0,0,357.15,857.92Z"/><path class="cls-10" d="M370.34,842.74a197,197,0,0,0-2,22.88c-.16,5.26-.08,10.69,1.94,15.55a20.71,20.71,0,0,0,7.06,8.89c2.85,2,6.16,3.32,9.26,5s6.12,3.8,7.68,6.93c-4.86,1.32-10.13-.08-14.5-2.59s-8-6-11.8-9.42c-.54-.48-1.23-1-1.92-.77s-.88.85-1.1,1.43c-1.71,4.63-3.43,9.31-4,14.21s.24,10.12,3.13,14.11c1.44,2,3.34,3.6,4.7,5.64a18.66,18.66,0,0,1,2.51,6.34,33.11,33.11,0,0,1-1.9,20.16V936.6a18.86,18.86,0,0,0-.74-6.49c-1.76-4.91-7.17-7.61-9.57-12.24-1.71-3.32-1.69-7.22-1.64-10.94a43.63,43.63,0,0,0-3.4,24.43c-1.1-5.46-2.21-11-1.71-16.56a57.88,57.88,0,0,1,2.68-11.65,82.61,82.61,0,0,1,3.63-10.29,71.24,71.24,0,0,0,3.41-7.57c.79-2.45,1.25-5.69-.11-8-7.27,4,0-10.46.88-12.7C365.59,857.78,369.27,850,370.34,842.74Z"/><path class="cls-10" d="M354.55,981.46c3.61,21.9-5.92,44.74-.5,66.26a93.62,93.62,0,0,1-.7-14.1c.39-7.57,2.59-14.93,3.59-22.44,2.13-16.1-1.3-32.37-4.71-48.25a109.91,109.91,0,0,0,3.51,25.71"/><path class="cls-10" d="M529.14,920.63c1.64-14.69,3.25-29.77-.42-44.09-4.21-16.47-15.19-31-16.87-47.93,1.93,9,4.61,17.35,9.29,25.25,1.76,3,3.83,5.77,5.47,8.82a47.29,47.29,0,0,1,4.81,15.19C533.79,893,532.57,905.68,529.14,920.63Z"/><path class="cls-10" d="M485.29,800.1c-.86,2.07-3.1,3.27-5.32,3.59a25.94,25.94,0,0,1-6.69-.35,13,13,0,0,0-6.62.55c-6.36-9.11-18.06-12.69-26.39-20.06a72.67,72.67,0,0,1-6.81-7.22l-14.52-16.9c.15-.53.83-.44,1.27-.1A3.49,3.49,0,0,1,421,761a11.4,11.4,0,0,0,1.38,2.26,18.8,18.8,0,0,0,2.37,2.74c.78.71,1.64,1.33,2.42,2a31,31,0,0,1,3,3.28,124.33,124.33,0,0,0,18.38,17.74c1.92,1.51,4.4,1.71,6.32,3.22s3.69,3.23,5.71,4.6c2.24,1.53,4.82,2.66,6.61,4.71a2.37,2.37,0,0,0,.7.64,2.12,2.12,0,0,0,.94.12l10.95-.29A8.33,8.33,0,0,0,485.29,800.1Z"/><path class="cls-10" d="M499.46,860.7l-.17,6.93c0,1.6-.08,3.2-.08,4.79a101.63,101.63,0,0,0,1.48,17.41c-.3,0-.5-.12-.8-.12a149.6,149.6,0,0,1-1.63-17.42c-.06-3.63.13-7.27-.11-10.9a91.53,91.53,0,0,0-2-12.51c-2-9.47-4-19-6.82-28.21-1.17-3.76-2.48-7.49-3.39-11.32a19.54,19.54,0,0,1-.67-6c.43-.14.62-.45,1.05-.6a20.83,20.83,0,0,0,1,9.32c2,6.41,4,12.61,6.53,18.77,1,2.51.68,5,1,7.66C495.71,846.49,499.66,852.64,499.46,860.7Z"/><path class="cls-10" d="M508.1,814.46c.15-1.49-1.18-2.66-2.21-3.75-3.76-3.93-5-9.91-9.17-13.4a11.21,11.21,0,0,0-2.52-1.6l-1.52,4.89c0,.13-.11.27-.23.27s-.09-.27,0-.19c-.08,1-.37,1.87-.54,2.86a18,18,0,0,1,2.23-2.76,1.73,1.73,0,0,1,.79-.53,1.68,1.68,0,0,1,1,.17c3.35,1.4,5.62,4.51,7.72,7.48C505.21,810.1,506.54,812.26,508.1,814.46Z"/><path class="cls-7" d="M289.2,900.52c4.74-3.9,11-5.28,16.92-6.93,6.13-1.7,17.09-3.8,22.95-6.28,9.53-4,13.1-9.32,23.45-9.53,3.4-17.23,13.05-40.62-1.65-55.11A27.44,27.44,0,0,0,330.05,815a52.49,52.49,0,0,0-18.16,4.46c-8.69,3.91-17.39,9.05-26.08,13-5.24,8.77-10,17.87-9.92,28.09a110.49,110.49,0,0,0,1.52,15.39c.6,4.18,1.22,8.42,2.83,12.33C282.18,892.9,286,896.56,289.2,900.52Z"/><path class="cls-26" d="M263,779.85a43.94,43.94,0,0,0,16.82,13.71c1.66,7.34,5.65,14.72,7,22.13,3.39,18.48,12.93,35.85,13.56,54.83.57,17.21-6,34.57-25.67,33.67-31.62-1.45-45.35-49.44-42.51-75.12.73-6.58,2.4-13,3.39-19.57,1.05-6.94,5-14,4.54-21C249.91,783.56,252.39,776.91,263,779.85Z"/><path class="cls-7" d="M280.22,799.42a25.58,25.58,0,0,0,3.72-5.7c.89-1.78,1.4-15.56.59-15,6.5-4.64,7.76-15.08,2.57-21.14,3.67-6.1,7.49-13.1,5.62-20a14.52,14.52,0,0,1-.81-3.51,11.51,11.51,0,0,1,.77-3.5c1.46-4.83-.12-11.18,0-16.22.06-4,0-8-.27-12a37.87,37.87,0,0,0-1.48-9.48c-.77-2.38-1.95-4.63-2.56-7.06a31.85,31.85,0,0,1-.68-5.24c-.39-5.44-1.47-10.42-1.18-15.87.33-6.1-.14-34.65-12.05-29.07-12.11,5.67-9.47,23.78-6.25,33.39,1.47,4.41,3.35,9,2.51,13.55-1.24,6.81-8.07,11.15-14.71,13.12s-13.79,2.46-19.91,5.7c-.44,6.94-5,11.67-8.94,17.42-1.91,2.83-4.21,5.42-5.67,8.5a18.41,18.41,0,0,0,.71,16.88c.69,1.18,1.55,2.45,1.29,3.8a6.58,6.58,0,0,1-1.37,2.42c-3.51,5-1.79,12.08,1.44,17.29,1.34,2.15,2.94,4.22,3.56,6.67.5,2,.34,4,.55,6,2.36,22.43,27.76,25.65,45.92,22.76A11.28,11.28,0,0,0,280.22,799.42Z"/><path class="cls-3" d="M290.65,733.77c-3.11,1.8-7,1.16-10.52.47-10-2-20.34-4.09-28.59-10.07,0-1-.39-1-.43-2,3.9.71,7,4.28,10.46,6.2a26.59,26.59,0,0,0,6.89,2.29c2.94.69,5.89,1.36,8.84,2C281.89,733.69,286.09,735,290.65,733.77Z"/><path class="cls-3" d="M286.94,758.48c-3.1,1.8-7,1.16-10.52.47-10-2-20.33-4.1-28.58-10.08,0-1-.4-1-.44-2,3.9.71,7,4.28,10.47,6.2a26.52,26.52,0,0,0,6.88,2.29c2.95.69,5.89,1.36,8.84,2C278.19,758.4,282.39,759.7,286.94,758.48Z"/><path class="cls-3" d="M283.54,778.15c-3,2-6.9,1.63-10.46,1.17-10.11-1.3-20.57-2.73-29.2-8.14-.11-1-.46-1-.57-2,3.94.45,7.26,3.81,10.86,5.49a26.42,26.42,0,0,0,7,1.83c3,.49,6,1,8.95,1.43C274.8,778.65,279.08,779.67,283.54,778.15Z"/><path class="cls-3" d="M226.34,747.89c.69-.58.64-1.66,1.07-2.46.6-1.12,2-1.49,3.29-1.64a22.45,22.45,0,0,1,4.49-.09c-3.15-.25-6.48-4.56-9.63-4.35C222.61,739.55,225.73,745.77,226.34,747.89Z"/><path class="cls-3" d="M258.43,793.56a19.3,19.3,0,0,1-10.69-2.17,52.11,52.11,0,0,1-9.15-6.18c-2.52-2-5-4-7.5-6,.25,1.32.38,2.93.63,4.25a3.52,3.52,0,0,0,2.16,3,66.73,66.73,0,0,0,12.22,5.74C249.83,793.52,254.63,794.66,258.43,793.56Z"/><path class="cls-3" d="M285.83,674.82c-4.12.57-8.26-.52-12.28-1.6a3.76,3.76,0,0,1-1.62-.74,3.62,3.62,0,0,1-.82-2.08l-1.2-7.06c.71,1.61,1.13,3.75,1.84,5.35a7.14,7.14,0,0,0,.71,1.34A5.85,5.85,0,0,0,274,671.4C277.59,673.76,281.59,675.43,285.83,674.82Z"/><polygon class="cls-22" points="567.33 975.76 653.8 954.76 880 965.26 835.41 994.29 567.33 979.7 567.33 975.76"/><polygon class="cls-5" points="880 965.26 880 988.43 835.41 1021.47 835.41 994.29 880 965.26"/><polygon class="cls-21" points="567.33 979.7 567.33 1002.47 592.87 1002.47 592.87 1008.04 617.52 1008.04 617.52 1004.97 778.58 1017.76 778.58 1021.47 805.76 1022.71 805.76 1019.87 835.41 1021.47 835.41 994.29 567.33 979.7"/><polygon class="cls-22" points="547.56 946.11 634.04 925.11 860.23 935.61 815.64 964.64 547.56 950.05 547.56 946.11"/><polygon class="cls-5" points="860.23 935.61 860.23 958.78 815.64 991.82 815.64 964.64 860.23 935.61"/><polygon class="cls-21" points="547.56 950.05 547.56 972.82 573.1 972.82 573.1 978.39 597.76 978.39 597.76 975.32 758.81 988.11 758.81 991.82 785.99 993.05 785.99 990.22 815.64 991.82 815.64 964.64 547.56 950.05"/></g></svg>