<svg id="visual" viewBox="0 0 960 540" width="960" height="540" xmlns="http://www.w3.org/2000/svg" xmlns:xlink="http://www.w3.org/1999/xlink" version="1.1"><rect x="0" y="0" width="960" height="540" fill="#FFFFFF"></rect><defs><linearGradient id="grad1_0" x1="43.8%" y1="0%" x2="100%" y2="100%"><stop offset="14.444444444444446%" stop-color="#ffffff" stop-opacity="1"></stop><stop offset="85.55555555555554%" stop-color="#ffffff" stop-opacity="1"></stop></linearGradient></defs><defs><linearGradient id="grad2_0" x1="0%" y1="0%" x2="56.3%" y2="100%"><stop offset="14.444444444444446%" stop-color="#ffffff" stop-opacity="1"></stop><stop offset="85.55555555555554%" stop-color="#ffffff" stop-opacity="1"></stop></linearGradient></defs><g transform="translate(960, 0)"><path d="M0 351C-50.5 323.5 -100.9 296 -156 270.2C-211.1 244.4 -270.7 220.3 -304 175.5C-337.2 130.7 -344.1 65.4 -351 0L0 0Z" fill="#1fad4e"></path></g><g transform="translate(0, 540)"><path d="M0 -351C35.8 -298.1 71.6 -245.2 128.5 -222.6C185.4 -199.9 263.4 -207.6 304 -175.5C344.6 -143.4 347.8 -71.7 351 0L0 0Z" fill="#1fad4e"></path></g></svg>